<?xml version="1.0" encoding="utf-8"?>
<!-- Generator: Adobe Illustrator 26.3.1, SVG Export Plug-In . SVG Version: 6.00 Build 0)  -->
<svg version="1.1" id="Group_64" xmlns="http://www.w3.org/2000/svg" xmlns:xlink="http://www.w3.org/1999/xlink" x="0px" y="0px"
	 viewBox="0 0 38.3 38.3" style="enable-background:new 0 0 38.3 38.3;" xml:space="preserve">
<style type="text/css">
	.st0{fill:#FFFFFF;}
</style>
<g>
	<g id="Group_63">
		<path id="Path_694" class="st0" d="M22.8,38c-8,1.5-16-2.2-20-9.2c-4-7.3-3.6-14.5,1.2-21.3c0.8-1.1,1.7-2.1,2.8-3
			c0.7-0.7,1.9-0.7,2.6,0c0,0,0.1,0.1,0.1,0.1c0.7,0.8,0.6,2-0.1,2.7c0,0,0,0,0,0c-1.6,1.4-2.9,3.1-3.8,5C1.7,20,4.9,29.2,12.5,32.9
			c1.3,0.6,2.6,1.1,4,1.3c8.3,1.4,16.2-4.1,17.6-12.4c0-0.1,0-0.2,0-0.2c0.1-0.9,0.2-1.8,0.2-2.3c0.1-4.6-1.9-9-5.3-12
			c-0.6-0.5-0.9-1.2-0.7-2C28.5,4.7,29,4.1,29.7,4c0.7-0.2,1.4,0,1.9,0.5c8,7,8.9,19.2,1.9,27.3C30.7,34.9,26.9,37.1,22.8,38"/>
		<path id="Path_695" class="st0" d="M21.1,17.3c0.1,1-0.7,1.9-1.8,2c-1,0.1-1.9-0.7-2-1.8l0,0c0-0.1,0-0.3,0-0.4c0-5,0-9.9,0-14.9
			c0-0.4,0.1-0.8,0.3-1.2c0.4-0.8,1.3-1.1,2.1-0.9c0.9,0.2,1.5,1,1.4,1.9c0,2.6,0,5.1,0,7.7l0,0C21.1,12.2,21.1,14.7,21.1,17.3"/>
	</g>
</g>
</svg>
