<svg id="Group_64" data-name="Group 64" xmlns="http://www.w3.org/2000/svg" xmlns:xlink="http://www.w3.org/1999/xlink" width="38.293" height="38.319" viewBox="0 0 38.293 38.319">
  <defs>
    <clipPath id="clip-path">
      <rect id="Rectangle_334" data-name="Rectangle 334" width="38.293" height="38.319" fill="#c4cad0"/>
    </clipPath>
  </defs>
  <g id="Group_63" data-name="Group 63" clip-path="url(#clip-path)">
    <path id="Path_694" data-name="Path 694" d="M22.765,77.171A18.944,18.944,0,0,1,2.74,67.994C-1.3,60.677-.855,53.5,3.947,46.652A22.4,22.4,0,0,1,6.7,43.662a1.851,1.851,0,0,1,2.717.112,1.914,1.914,0,0,1-.177,2.734,15.671,15.671,0,0,0-3.812,4.986A15.425,15.425,0,0,0,16.581,73.43a15.212,15.212,0,0,0,17.648-12.6c.145-.867.193-1.751.25-2.293a15.633,15.633,0,0,0-5.315-11.97,1.99,1.99,0,0,1-.745-1.992,1.789,1.789,0,0,1,1.291-1.417,1.922,1.922,0,0,1,1.941.482,19.338,19.338,0,0,1-8.886,33.53" transform="translate(0 -39.202)" fill="#c4cad0"/>
    <path id="Path_695" data-name="Path 695" d="M196.221,17.267a1.9,1.9,0,0,1-3.8.215c-.009-.135-.009-.269-.009-.4,0-4.966-.006-9.931.011-14.9a2.841,2.841,0,0,1,.253-1.2,1.834,1.834,0,0,1,2.09-.924,1.882,1.882,0,0,1,1.449,1.869c.013,2.572,0,5.145,0,7.718h0c0,2.543.01,5.085,0,7.628" transform="translate(-175.144 0.001)" fill="#c4cad0"/>
  </g>
</svg>
