<?xml version="1.0" encoding="utf-8"?>
<!-- Generator: Adobe Illustrator 26.3.1, SVG Export Plug-In . SVG Version: 6.00 Build 0)  -->
<svg version="1.1" id="Layer_1" xmlns="http://www.w3.org/2000/svg" xmlns:xlink="http://www.w3.org/1999/xlink" x="0px" y="0px"
	 viewBox="0 0 1917.7 434.2" style="enable-background:new 0 0 1917.7 434.2;" xml:space="preserve">
<style type="text/css">
	.st0{fill:url(#SVGID_1_);}
	.st1{fill:url(#SVGID_00000134950473767671669940000000480353297162543761_);}
	.st2{fill:url(#SVGID_00000059300991313848041020000013652589574747945858_);}
	.st3{fill:url(#SVGID_00000003822711541384043960000015308620363556165515_);}
	.st4{enable-background:new    ;}
	.st5{fill:#233862;}
</style>
<g>
	<linearGradient id="SVGID_1_" gradientUnits="userSpaceOnUse" x1="359.6646" y1="247.3248" x2="397.8477" y2="427.9733">
		<stop  offset="0" style="stop-color:#9281F7"/>
		<stop  offset="0.2201" style="stop-color:#8673F0"/>
		<stop  offset="0.638" style="stop-color:#684DDE"/>
		<stop  offset="1" style="stop-color:#4A27CC"/>
	</linearGradient>
	<path class="st0" d="M276.3,277c0,0-3.3-36.7,25-53.3c28.3-16.7,114.5-66.2,130-76.7c15.5-10.4,25-6.7,28.3,21.7
		c3.3,28.3-1.3,128.6-2.4,139.9c-1.1,11.4-1.4,28.3-14.3,36.5c-18.3,11.7-122,81.3-136.6,86.9c-14.6,5.6-28.3,1.7-28.3-23.3
		S276.3,277,276.3,277z"/>
	
		<linearGradient id="SVGID_00000119080757594175502270000004525208363322070150_" gradientUnits="userSpaceOnUse" x1="239.6063" y1="4.4884" x2="283.7434" y2="255.4155">
		<stop  offset="0" style="stop-color:#9281F7"/>
		<stop  offset="0.1754" style="stop-color:#8673F0"/>
		<stop  offset="0.5083" style="stop-color:#684DDE"/>
		<stop  offset="0.7967" style="stop-color:#4A27CC"/>
	</linearGradient>
	<path style="fill:url(#SVGID_00000119080757594175502270000004525208363322070150_);" d="M96.3,102l133.3,80
		c0,0,31.7,13.3,63.3-8.3s111.7-65,111.7-65s35-26.7-16.7-50S277.5,4.1,277.5,4.1s-21.7-13.3-58.3,8.3S107.9,70.3,107.9,70.3
		S84.6,83.6,96.3,102z"/>
	
		<linearGradient id="SVGID_00000006681904547435482010000016598409801074531760_" gradientUnits="userSpaceOnUse" x1="109.9513" y1="212.6192" x2="121.7825" y2="445.3168">
		<stop  offset="0" style="stop-color:#9281F7"/>
		<stop  offset="0.2201" style="stop-color:#8673F0"/>
		<stop  offset="0.638" style="stop-color:#684DDE"/>
		<stop  offset="1" style="stop-color:#4A27CC"/>
	</linearGradient>
	<path style="fill:url(#SVGID_00000006681904547435482010000016598409801074531760_);" d="M114.6,382l80,43.3c0,0,33.3,26.7,35-23.3
		s3.3-130,3.3-130s3.3-33.2-35-56.7c-44.6-27.4-102.4-58.7-115.6-66.1c-13.2-7.4-37.8-7.3-36.1,31.1s1.7,118.3,1.7,118.3
		s-5,21.7,16.7,8.3s31.7-20,56.7-33.3c25-11.7,52.1,9.5,24,38.5L26.1,383.7c0,0-36.5,16.6-23.2,39.9c0,0,6.8,20.8,41.7,0L114.6,382z
		"/>
	
		<linearGradient id="SVGID_00000075157900691433019220000003210544124003033769_" gradientUnits="userSpaceOnUse" x1="482.2126" y1="4.8135" x2="467.7722" y2="147.4752">
		<stop  offset="0" style="stop-color:#9281F7"/>
		<stop  offset="0.2201" style="stop-color:#8673F0"/>
		<stop  offset="0.638" style="stop-color:#684DDE"/>
		<stop  offset="1" style="stop-color:#4A27CC"/>
	</linearGradient>
	<path style="fill:url(#SVGID_00000075157900691433019220000003210544124003033769_);" d="M533.8,30.4L433.4,6.9
		c-11.6-2.7-23.1,4.5-25.8,16c-2.7,11.6,4.5,23.1,16,25.8l79.5,18.6l-18.6,79.5c-2.7,11.6,4.5,23.1,16,25.8
		c5.8,1.4,11.6,0.2,16.2-2.7c4.7-2.9,8.2-7.6,9.6-13.4l23.5-100.4C552.5,44.6,545.3,33.1,533.8,30.4z"/>
</g>
<g class="st4">
	<path class="st5" d="M732.5,138.7c-10.5,0-19.8,2-27.9,6.1c-8.1,4.1-14.9,10-20.4,17.6c-5.5,7.7-9.7,17-12.5,27.8
		c-2.8,10.9-4.3,23.1-4.3,36.7c0,18.3,2.3,33.9,6.8,46.9c4.5,12.9,11.6,22.8,21.2,29.6c9.6,6.8,21.9,10.2,37,10.2
		c10.5,0,21.1-1.2,31.6-3.5c10.6-2.4,22.1-5.7,34.5-10.1V346c-11.5,4.7-22.7,8.1-33.8,10.2c-11.1,2.1-23.6,3.1-37.4,3.1
		c-26.7,0-48.6-5.5-65.8-16.6c-17.2-11-29.9-26.5-38.2-46.4c-8.3-19.9-12.4-43.2-12.4-69.7c0-19.6,2.7-37.6,8-53.9
		s13.1-30.4,23.4-42.4c10.3-11.9,23-21.1,38.1-27.6c15.1-6.5,32.5-9.7,52.1-9.7c12.9,0,25.8,1.6,38.7,4.9
		c12.9,3.3,25.3,7.7,37.1,13.4l-17.7,44.7c-9.7-4.6-19.4-8.6-29.2-12.1C751.6,140.4,741.9,138.7,732.5,138.7z"/>
	<path class="st5" d="M831.9,280.7v-44.3h95.2v44.3H831.9z"/>
	<path class="st5" d="M1129.1,355.8l-18.8-61.7h-94.5l-18.8,61.7h-59.2l91.4-260.2h67.2l91.8,260.2H1129.1z M1097.2,248l-18.8-60.3
		c-1.2-4-2.7-9.2-4.7-15.5c-1.9-6.3-3.9-12.8-5.8-19.3c-1.9-6.6-3.5-12.3-4.7-17.1c-1.2,4.8-2.8,10.8-4.9,18
		c-2.1,7.1-4,13.9-5.9,20.3c-1.9,6.4-3.2,10.9-4.1,13.6l-18.6,60.3H1097.2z"/>
	<path class="st5" d="M1431.8,96.7v167.6c0,17.8-3.9,33.9-11.8,48.3c-7.9,14.4-19.7,25.7-35.6,34.1c-15.9,8.4-35.9,12.6-60,12.6
		c-34.3,0-60.4-8.7-78.3-26.2c-18-17.5-26.9-40.6-26.9-69.5V96.7h54.8v158.6c0,21.4,4.4,36.4,13.1,45c8.7,8.6,21.7,12.9,38.8,12.9
		c12.1,0,21.8-2.1,29.3-6.2c7.5-4.1,13-10.5,16.6-19.1c3.5-8.6,5.3-19.6,5.3-33V96.7H1431.8z"/>
	<path class="st5" d="M1595.2,355.8h-54.9V142.4h-70.4V96.7h195.6v45.7h-70.4V355.8z"/>
	<path class="st5" d="M1917.7,355.8h-54.8V244h-102.6v111.8h-54.9V96.7h54.9v101.5h102.6V96.7h54.8V355.8z"/>
</g>
</svg>
