<svg xmlns="http://www.w3.org/2000/svg" xmlns:xlink="http://www.w3.org/1999/xlink" width="334.945" height="234.041" viewBox="0 0 334.945 234.041">
  <defs>
    <clipPath id="clip-path">
      <rect id="Rectangle_285" data-name="Rectangle 285" width="334.945" height="234.041" fill="none"/>
    </clipPath>
    <clipPath id="clip-path-2">
      <rect id="Rectangle_283" data-name="Rectangle 283" width="197.056" height="204.117" fill="none"/>
    </clipPath>
  </defs>
  <g id="Group_67" data-name="Group 67" transform="translate(-314.027 -1064.959)">
    <g id="Group_26" data-name="Group 26" transform="translate(314.027 1064.959)">
      <g id="Group_25" data-name="Group 25" clip-path="url(#clip-path)">
        <path id="Path_383" data-name="Path 383" d="M231.8.239Q228.718,0,225.482,0c-23.014.03-43.669,18.57-65.972,26.632-22.646,8.185-36.657-2.073-54.864-.346-26.11,2.477-49.67,21.971-58.432,29.555A150.823,150.823,0,0,0,31.75,68.3C4.477,95.115-3.5,128.513,1.321,154.64s22.426,44.982,44.394,58.552,45.4,22,61.868,16.9,25.969-23.734,39.3-24.54,57.348,18.613,60.2,18.409c8.158,3.767,16.325,6.946,24.086,8.611,23.237,4.984,42.825-3.6,56.966-12.736,69.909-45.763,57.882-152.582-11.957-201.183A77.039,77.039,0,0,0,231.8.239" transform="translate(0 0)" fill="#e7f4ff"/>
      </g>
    </g>
    <g id="Group_22" data-name="Group 22" transform="translate(374.535 1074.781)">
      <g id="Group_21" data-name="Group 21" clip-path="url(#clip-path-2)">
        <path id="Path_367" data-name="Path 367" d="M308.008,7.789c-2.032.15-4.086.035-6.2.035-.935,3.672-1.816,7.212-2.737,10.743-.644,2.477-1.679,3.324-4.17,3.328q-34.529.02-69.053,0c-2.64,0-3.593-.793-4.289-3.447-.467-1.772-.886-3.553-1.34-5.325-.432-1.706-.882-3.4-1.367-5.272-2.693,0-5.4-.106-8.089.031-2.067.11-3.2,1.6-3.209,3.985-.026,6.158-.009,12.316-.009,18.474,0,12.321-.031,24.637.053,36.958a5.713,5.713,0,0,0,1.168,3.319,56.123,56.123,0,0,1,.11,71.4,6.039,6.039,0,0,0-1.274,3.5c-.079,18.183-.057,36.367-.057,54.55,0,3.764,1.093,4.871,4.809,4.871q47.938.007,95.876.04a5.366,5.366,0,0,0,4.88-2.235V10.024a5.2,5.2,0,0,0-5.1-2.235m-20.1,98.358a23.432,23.432,0,0,1-6.934,12.726q-8.715,8.708-17.421,17.416c-2.442,2.433-4.042,2.407-6.533-.075q-8.642-8.622-17.267-17.262a24.842,24.842,0,0,1-7.586-18.364c.022-3.742.044-7.481-.009-11.219a3.967,3.967,0,0,1,2.7-4.073c7.811-3.328,15.583-6.744,23.438-9.971a5.728,5.728,0,0,1,3.954-.04c7.851,3.218,15.622,6.647,23.438,9.958a4.063,4.063,0,0,1,2.8,4.232c-.07,2.2-.018,4.4-.018,6.6l.212.013c-.238,3.355-.212,6.758-.776,10.059" transform="translate(-116.052 -4.342)" fill="#6c52e0"/>
        <path id="Path_368" data-name="Path 368" d="M78.485,400.714c-2.662,2.226-5.113,4.285-7.573,6.334q-5.832,4.853-11.655,9.715a17.213,17.213,0,0,0-1.437,1.556h-.441V407.763H8.22V393.745H57.3V383.06c7.265,6.052,14.119,11.765,21.185,17.654" transform="translate(-4.597 -214.203)" fill="#1ab25e"/>
        <path id="Path_369" data-name="Path 369" d="M49.256,119.69a49.272,49.272,0,1,0,49.269,49.662A49.341,49.341,0,0,0,49.256,119.69M19.431,198.485c-15.5-14-17.377-42.406-.022-59.157,1.45,1.684,2.909,3.372,4.479,5.2a35.406,35.406,0,0,0,.3,49.164c-1.679,1.7-3.218,3.244-4.752,4.8m35.2-6.017c-.533.225-1.076.432-1.772.714v7.3H45.835v-7.1c-6.775-2.372-10.513-7.525-10.557-13.784h6.788c.115.5.216.983.344,1.455a7.024,7.024,0,0,0,13.872-1.891c-.185-3.654-3.09-6.189-6.877-6.753a21.712,21.712,0,0,1-8.01-2.5c-4.624-2.817-6.617-7.406-6.105-12.775a13.169,13.169,0,0,1,8.53-11.571c1.583-.648,2.107-1.406,1.957-3.037-.15-1.653-.031-3.337-.031-5.122h7.035c0,1.75.084,3.549-.026,5.338a2.3,2.3,0,0,0,1.754,2.715A13.44,13.44,0,0,1,63.181,158.3H56.463c-.093-.4-.194-.864-.317-1.322a7.028,7.028,0,0,0-13.908,1.671,7,7,0,0,0,7,6.771,14.062,14.062,0,0,1,5.387,27.044m24.408,6.1c-1.512-1.56-3.024-3.125-4.686-4.84a35.455,35.455,0,0,0-.123-49.626c1.657-1.618,3.222-3.143,4.792-4.673,16.015,14.212,17.077,43.363.018,59.139" transform="translate(0 -66.929)" fill="#f99746"/>
        <path id="Path_370" data-name="Path 370" d="M78.244,10.46V24.54H29.2V35.221C21.944,29.177,15.12,23.491,8.01,17.562,15.019,11.717,21.878,6,29.076,0V10.46Z" transform="translate(-4.479)" fill="#e53b1a"/>
        <path id="Path_371" data-name="Path 371" d="M318.1,8.2c-.577,2.35-1.12,4.545-1.679,6.811h-64.9c-.547-2.178-1.111-4.408-1.719-6.811Z" transform="translate(-139.686 -4.585)" fill="#37289a"/>
        <path id="Path_372" data-name="Path 372" d="M321.5,186.542c0-.458-.811-1.093-1.384-1.344-6.1-2.671-12.21-5.307-18.355-7.864a3.527,3.527,0,0,0-2.442-.031q-9.323,3.875-18.554,7.961a2.793,2.793,0,0,0-1.353,2.01c-.145,3-.11,6.008-.04,9.01a16.029,16.029,0,0,0,4.439,11.179c5.413,5.563,11.007,10.954,16.191,16.085,6.039-5.739,12.2-11.263,17.919-17.223a13.879,13.879,0,0,0,3.187-7.3,85.986,85.986,0,0,0,.392-12.488m-18.779,20.665c-1.468,1.428-3.271,1.221-4.756-.163-2.35-2.2-4.615-4.479-7-6.8,1.8-1.851,3.324-3.421,5.259-5.409,1.322,1.671,2.583,3.271,3.989,5.052l11.615-11.915c1.812,1.851,3.372,3.443,5.008,5.109-4.7,4.721-9.345,9.486-14.115,14.128" transform="translate(-156.188 -99.032)" fill="#1ab25e"/>
      </g>
    </g>
  </g>
</svg>
