<svg xmlns="http://www.w3.org/2000/svg" xmlns:xlink="http://www.w3.org/1999/xlink" width="360.818" height="274.01" viewBox="0 0 360.818 274.01">
  <defs>
    <clipPath id="clip-path">
      <rect id="Rectangle_286" data-name="Rectangle 286" width="332.034" height="230.039" fill="none"/>
    </clipPath>
    <clipPath id="clip-path-2">
      <rect id="Rectangle_284" data-name="Rectangle 284" width="212" height="204.704" fill="none"/>
    </clipPath>
  </defs>
  <g id="Group_68" data-name="Group 68" transform="translate(-779.591 -1032.874)">
    <g id="Group_28" data-name="Group 28" transform="translate(811.606 1032.874) rotate(8)">
      <g id="Group_27" data-name="Group 27" clip-path="url(#clip-path)">
        <path id="Path_384" data-name="Path 384" d="M104.4,52.033c19.336-10.507,42.3-43.58,75.754-50.273S256.977,7.968,286.544,31.7s45.334,58.3,45.488,88.009-10.645,75.758-32.992,86.278C84.194,307.137-135.407,56.8,104.4,52.033" transform="translate(0 0.001)" fill="#e7f4ff"/>
      </g>
    </g>
    <g id="Group_24" data-name="Group 24" transform="translate(863 1086.144)">
      <g id="Group_23" data-name="Group 23" clip-path="url(#clip-path-2)">
        <path id="Path_373" data-name="Path 373" d="M131.59,4.863C131.6,2.614,130.937,1,128.907,0H25.686c-.021,4.785,0,9.566-.069,14.347A11.027,11.027,0,0,1,14.382,25.635c-2.923.052-5.854.009-8.777.009H0v2.215q0,74.947,0,149.9c0,3.888,1.18,5.043,5.167,5.043q41.973,0,83.947,0c.67,0,1.339-.073,2.215-.12-12.9-20.978-14.36-42.536-4.481-64.96-28.416,9.386-52.359-5.605-62.076-22.875A51.315,51.315,0,0,1,90.788,22.755a49.64,49.64,0,0,1,23.2,21.407c7.541,13.588,8.536,27.823,3.678,42.544,4.064-1.386,7.9-2.85,11.828-3.966,1.627-.464,2.1-1.06,2.1-2.712q-.084-37.583,0-75.166M18.382,127.512a3.367,3.367,0,0,1,3.223-3.172,3.3,3.3,0,0,1,3.747,2.511,9.926,9.926,0,0,1,.27,2.747q.026,14.343.009,28.69V160.7h7.3c0-3.5-.017-6.845,0-10.189.021-2.665,1.494-4.33,3.712-4.275,2.146.056,3.545,1.669,3.571,4.227.034,3.348.009,6.7.009,10.219h7.3v-2.313q0-11.137,0-22.266c.009-2.811,1.485-4.566,3.734-4.506,2.18.06,3.549,1.738,3.554,4.455q.026,11.137.009,22.27v2.528c4.412,0,8.609,0,12.807,0,3.708,0,5.459,1.154,5.481,3.605.021,2.468-1.785,3.717-5.416,3.717q-22.055,0-44.111,0c-4.257,0-5.262-1.026-5.262-5.339V129.65a17.727,17.727,0,0,1,.056-2.137" fill="#6c52e0"/>
        <path id="Path_374" data-name="Path 374" d="M446.118,77v2.571c-1.129,1.421-2.3,2.7-4.416,2.249-2.129-.451-2.661-2.146-3.176-3.884-.442-1.489-.893-2.978-1.459-4.867-.562.97-.94,1.6-1.288,2.24Q426.8,91.949,417.819,108.59a11.286,11.286,0,0,1-1.343,2.172,3.38,3.38,0,0,1-4.438.824,3.544,3.544,0,0,1-1.674-4.39,14.113,14.113,0,0,1,.949-1.91q8.968-16.648,17.944-33.291c.365-.674.691-1.365,1.232-2.433-2.124.609-3.875,1.124-5.631,1.614-2.545.708-4.519-.223-5.137-2.395-.571-2,.639-3.863,3.064-4.6q6.644-2.009,13.3-3.953c3.253-.953,4.721-.112,5.747,3.184,1.416,4.532,2.854,9.056,4.283,13.583" transform="translate(-234.118 -34.171)" fill="#3fa9f5"/>
        <path id="Path_375" data-name="Path 375" d="M262.711,204.5a58.469,58.469,0,1,0,58.711,58.57,58.4,58.4,0,0,0-58.711-58.57m.034,109.637a51.171,51.171,0,1,1,51.377-51.286,51.219,51.219,0,0,1-51.377,51.286" transform="translate(-116.722 -116.733)" fill="#ef7e29"/>
        <path id="Path_376" data-name="Path 376" d="M167.978,170.608a39.191,39.191,0,0,1-3.554,13.978c-1.751,3.914-3.79,7.648-7.39,10.287a16.894,16.894,0,0,0-3.36,3.279c-5.236,6.785-12.553,9.944-20.6,11.545-13.1,2.609-25.025-.3-35.66-8.4-.391-.3-.738-.648-1.2-1.06.476-.519.888-1,1.335-1.442q13.532-13.545,27.1-27.051a4.077,4.077,0,0,1,2.506-1.223c13.266-.073,26.532-.047,39.8-.043a9.708,9.708,0,0,1,1.017.129" transform="translate(-54.925 -97.309)" fill="#e53b07"/>
        <path id="Path_377" data-name="Path 377" d="M210.437,100.2H170.76V60.4c21.459,1.536,38.471,19.669,39.677,39.8" transform="translate(-97.474 -34.478)" fill="#ffb93e"/>
        <path id="Path_378" data-name="Path 378" d="M96.924,141.081Q83.386,154.613,69.9,168.1c-9.665-9.064-13.3-31.1-6.841-43.948,11.425,5.712,22.755,11.377,33.866,16.931" transform="translate(-34.14 -70.868)" fill="#662d91"/>
        <path id="Subtraction_1" data-name="Subtraction 1" d="M-819-958.144a43.725,43.725,0,0,1-17.127-3.458,43.854,43.854,0,0,1-13.986-9.43,43.854,43.854,0,0,1-9.43-13.986A43.725,43.725,0,0,1-863-1002.144a43.725,43.725,0,0,1,3.458-17.127,43.854,43.854,0,0,1,9.43-13.986,43.856,43.856,0,0,1,13.986-9.43A43.726,43.726,0,0,1-819-1046.144a43.726,43.726,0,0,1,17.127,3.458,43.856,43.856,0,0,1,13.986,9.43,43.852,43.852,0,0,1,9.429,13.986A43.725,43.725,0,0,1-775-1002.144a43.725,43.725,0,0,1-3.458,17.127,43.853,43.853,0,0,1-9.429,13.986,43.854,43.854,0,0,1-13.986,9.43A43.725,43.725,0,0,1-819-958.144Zm-8.708-34.587-11.535.047a18.568,18.568,0,0,0,1.468,7.632,15.249,15.249,0,0,0,3.854,5.268,17.028,17.028,0,0,0,5.5,3.185,26.885,26.885,0,0,0,6.412,1.42l.03,7.341,6.347-.026-.031-7.378a23.987,23.987,0,0,0,6.52-1.509,16.072,16.072,0,0,0,5-3.062,13.182,13.182,0,0,0,3.2-4.5,14.49,14.49,0,0,0,1.113-5.863,14.386,14.386,0,0,0-1.282-6.224,14.27,14.27,0,0,0-3.551-4.6,24.187,24.187,0,0,0-5.463-3.482c-2.111-1-4.485-1.988-7.057-2.937a37.224,37.224,0,0,1-4.019-1.708,10.956,10.956,0,0,1-2.6-1.768,5.442,5.442,0,0,1-1.386-2.053,7.343,7.343,0,0,1-.409-2.482,7.959,7.959,0,0,1,.389-2.56,5.439,5.439,0,0,1,1.229-2.064,5.834,5.834,0,0,1,2.13-1.38,8.6,8.6,0,0,1,3.091-.514h.04a6.772,6.772,0,0,1,5.258,2.184c1.316,1.459,1.99,3.7,2,6.648l11.534-.048a20.049,20.049,0,0,0-1.084-6.688,15.45,15.45,0,0,0-3.034-5.16,15.475,15.475,0,0,0-4.765-3.541,19.939,19.939,0,0,0-6.234-1.791l-.032-8.046-6.386.026.032,7.934a22.192,22.192,0,0,0-6.48,1.565,16.67,16.67,0,0,0-4.956,3.154,13.345,13.345,0,0,0-3.175,4.536,14.457,14.457,0,0,0-1.094,5.751,14.483,14.483,0,0,0,1.283,6.262,14.042,14.042,0,0,0,3.551,4.582,23.887,23.887,0,0,0,5.482,3.445,75.81,75.81,0,0,0,7.116,2.845,28.772,28.772,0,0,1,3.858,1.579,10.941,10.941,0,0,1,2.581,1.769,5.774,5.774,0,0,1,1.446,2.145,7.938,7.938,0,0,1,.45,2.741,6.644,6.644,0,0,1-.469,2.541,5.461,5.461,0,0,1-1.428,2.028,6.861,6.861,0,0,1-2.37,1.345,10.287,10.287,0,0,1-3.29.495h-.052a12.3,12.3,0,0,1-3.163-.413,7.181,7.181,0,0,1-2.821-1.471,7.4,7.4,0,0,1-1.987-2.81,11.45,11.45,0,0,1-.756-4.391Z" transform="translate(965 1148)" fill="#fda428"/>
        <path id="Path_379" data-name="Path 379" d="M108.407,60.57V98.037C97.236,92.453,86.142,86.917,74.88,81.291,81.528,69.7,95.953,60.8,108.407,60.57" transform="translate(-42.743 -34.575)" fill="#09b25e"/>
        <path id="Path_380" data-name="Path 380" d="M368.927,51.145c-1.489,1.541-3.588,1.554-5.33-.107-1.386-1.33-2.635-2.8-3.944-4.215-.206.069-.408.137-.614.2v2.142q0,19.049,0,38.089a14.774,14.774,0,0,1-.056,2.137,3.62,3.62,0,0,1-7.163.086,13.1,13.1,0,0,1-.073-2.137V47.149l-.6-.386c-1.288,1.412-2.515,2.888-3.884,4.219-1.747,1.7-3.82,1.721-5.33.219a3.64,3.64,0,0,1,.185-5.339q5.247-5.35,10.6-10.588c1.73-1.682,3.588-1.721,5.313-.051q5.459,5.279,10.751,10.734a3.587,3.587,0,0,1,.155,5.189" transform="translate(-194.565 -19.403)" fill="#9e005d"/>
        <path id="Path_381" data-name="Path 381" d="M26.023,23.51a3.309,3.309,0,0,1-3.442,3.172c-2.966.12-5.936.03-8.871.03,4.215-4.086,8.373-8.12,12.365-11.991,0,2.6.133,5.7-.052,8.79" transform="translate(-7.826 -8.403)" fill="#39239f"/>
      </g>
    </g>
  </g>
</svg>
