<svg xmlns="http://www.w3.org/2000/svg" xmlns:xlink="http://www.w3.org/1999/xlink" width="346.558" height="248.644" viewBox="0 0 346.558 248.644">
  <defs>
    <clipPath id="clip-path">
      <rect id="Rectangle_287" data-name="Rectangle 287" width="346.558" height="235.392" fill="none"/>
    </clipPath>
    <clipPath id="clip-path-2">
      <rect id="Rectangle_297" data-name="Rectangle 297" width="219.664" height="235.278" fill="none"/>
    </clipPath>
  </defs>
  <g id="Group_69" data-name="Group 69" transform="translate(-1268.221 -1038.874)">
    <g id="Group_30" data-name="Group 30" transform="translate(1268.221 1038.874)">
      <g id="Group_29" data-name="Group 29" clip-path="url(#clip-path)">
        <path id="Path_385" data-name="Path 385" d="M203.043,202.226c-13.95,1.871-28.345,23.7-49.937,30.322s-55.746,2.075-66.519-17.871c-31.14-51.313-99.655-66.9-84.4-126.444C6.628,72.889,19.225,58.572,34.1,53.994s32.029.582,53.935-9.7S136.6,8.275,174.5,1.724,261.526,7.8,295.023,31.033,346.382,88.1,346.557,117.18s-17.336,53.4-37.377,72.5-42.609,32.972-60.646,30.868-31.542-20.189-45.491-18.318" transform="translate(0 0)" fill="#e7f4ff"/>
      </g>
    </g>
    <g id="Group_33" data-name="Group 33" transform="translate(1345.668 1052.24)">
      <rect id="Rectangle_288" data-name="Rectangle 288" width="62.059" height="36.715" transform="translate(78.802 198.563)" fill="#39239f"/>
      <g id="Group_32" data-name="Group 32">
        <g id="Mask_Group_31" data-name="Mask Group 31" clip-path="url(#clip-path-2)">
          <path id="Path_386" data-name="Path 386" d="M165.379,291.591H93.5a3.667,3.667,0,0,0,0,7.335h71.876a3.667,3.667,0,0,0,0-7.335" transform="translate(-19.609 -63.648)" fill="#6c52e0"/>
          <path id="Path_387" data-name="Path 387" d="M0,68.452H219.664V213.586a6.129,6.129,0,0,1-6.129,6.129H6.129A6.129,6.129,0,0,1,0,213.586Z" transform="translate(0 -14.942)" fill="#6c52e0"/>
          <path id="Path_388" data-name="Path 388" d="M219.664,192.748H0V47.614a6.129,6.129,0,0,1,6.129-6.129H213.535a6.129,6.129,0,0,1,6.129,6.129Z" transform="translate(0 -9.055)" fill="#39239f"/>
          <rect id="Rectangle_289" data-name="Rectangle 289" width="202.013" height="131.34" transform="translate(8.826 42.143)" fill="#f9fbfc"/>
          <path id="Path_389" data-name="Path 389" d="M141.466,46.819a1.34,1.34,0,1,1-1.34-1.34,1.34,1.34,0,0,1,1.34,1.34" transform="translate(-30.294 -9.927)" fill="#93dfde"/>
          <rect id="Rectangle_290" data-name="Rectangle 290" width="15.44" height="15.44" transform="translate(190.055 47.027)" fill="#6c52e0"/>
          <path id="Path_390" data-name="Path 390" d="M221.608,75.6H152.275a7.72,7.72,0,1,1,0-15.44h69.333Z" transform="translate(-31.553 -13.131)" fill="#ffa412"/>
          <path id="Path_391" data-name="Path 391" d="M250.558,71.49a3.9,3.9,0,1,1,2.756-1.141,3.871,3.871,0,0,1-2.756,1.141m0-7.014a3.116,3.116,0,0,0-2.2,5.32,3.19,3.19,0,0,0,4.406,0,3.116,3.116,0,0,0-2.2-5.32" transform="translate(-53.841 -13.903)" fill="#fff"/>
          <path id="Path_392" data-name="Path 392" d="M257.85,75.277a.389.389,0,0,1-.276-.114l-3.142-3.142a.391.391,0,1,1,.553-.553l3.142,3.141a.391.391,0,0,1-.277.668" transform="translate(-55.512 -15.575)" fill="#fff"/>
          <path id="Path_393" data-name="Path 393" d="M180.069,129.627h0a3.38,3.38,0,0,0,4.636,1.92,3.381,3.381,0,0,1,4.5,4.5,3.38,3.38,0,0,0,1.92,4.636,3.38,3.38,0,0,1,0,6.369,3.38,3.38,0,0,0-1.92,4.636,3.381,3.381,0,0,1-4.5,4.5,3.38,3.38,0,0,0-4.636,1.92,3.38,3.38,0,0,1-6.369,0,3.38,3.38,0,0,0-4.636-1.92,3.38,3.38,0,0,1-4.5-4.5,3.38,3.38,0,0,0-1.921-4.636,3.38,3.38,0,0,1,0-6.369,3.38,3.38,0,0,0,1.921-4.636,3.38,3.38,0,0,1,4.5-4.5,3.38,3.38,0,0,0,4.636-1.92,3.38,3.38,0,0,1,6.369,0" transform="translate(-35.01 -27.804)" fill="#6c52e0"/>
          <path id="Path_394" data-name="Path 394" d="M174.679,151.43a6.9,6.9,0,1,0,0-9.764,6.9,6.9,0,0,0,0,9.764" transform="translate(-37.687 -30.481)" fill="#f9fbfc"/>
          <path id="Path_395" data-name="Path 395" d="M214.171,108.53h0a3.379,3.379,0,0,0,4.635,1.92,3.38,3.38,0,0,1,4.5,4.5,3.38,3.38,0,0,0,1.921,4.636,3.381,3.381,0,0,1,0,6.369,3.38,3.38,0,0,0-1.921,4.636,3.38,3.38,0,0,1-4.5,4.5,3.38,3.38,0,0,0-4.635,1.921,3.381,3.381,0,0,1-6.37,0,3.38,3.38,0,0,0-4.635-1.921h0a3.381,3.381,0,0,1-4.505-4.5,3.379,3.379,0,0,0-1.92-4.636,3.38,3.38,0,0,1,0-6.369,3.379,3.379,0,0,0,1.92-4.636,3.381,3.381,0,0,1,4.505-4.5,3.379,3.379,0,0,0,4.635-1.92,3.381,3.381,0,0,1,6.37,0" transform="translate(-42.453 -23.199)" fill="#e53b07"/>
          <path id="Path_396" data-name="Path 396" d="M208.78,130.333a6.9,6.9,0,1,0,0-9.764,6.9,6.9,0,0,0,0,9.764" transform="translate(-45.131 -25.876)" fill="#f9fbfc"/>
          <path id="Path_397" data-name="Path 397" d="M224.226,148.277h0a3.38,3.38,0,0,0,4.636,1.92,3.381,3.381,0,0,1,4.5,4.5,3.38,3.38,0,0,0,1.92,4.636,3.38,3.38,0,0,1,0,6.369,3.38,3.38,0,0,0-1.92,4.636,3.38,3.38,0,0,1-4.5,4.5,3.38,3.38,0,0,0-4.636,1.921,3.38,3.38,0,0,1-6.369,0,3.38,3.38,0,0,0-4.636-1.921,3.38,3.38,0,0,1-4.5-4.5,3.38,3.38,0,0,0-1.921-4.636,3.38,3.38,0,0,1,0-6.369,3.38,3.38,0,0,0,1.921-4.636,3.38,3.38,0,0,1,4.5-4.5,3.38,3.38,0,0,0,4.636-1.92,3.38,3.38,0,0,1,6.369,0" transform="translate(-44.648 -31.875)" fill="#09b25e"/>
          <path id="Path_398" data-name="Path 398" d="M218.835,170.082a6.9,6.9,0,1,0,0-9.765,6.905,6.905,0,0,0,0,9.765" transform="translate(-47.325 -34.552)" fill="#f9fbfc"/>
          <path id="Path_399" data-name="Path 399" d="M155.422,109.871l-6.112-2.7V106.3l6.112-3.053v1.477l-4.21,1.951,4.21,1.729Z" transform="translate(-32.591 -22.535)" fill="#09b25e"/>
          <path id="Path_400" data-name="Path 400" d="M163.8,101.809l-3.354,9h-1.7l3.354-9Z" transform="translate(-34.649 -22.223)" fill="#09b25e"/>
          <path id="Path_401" data-name="Path 401" d="M166.787,108.4l4.21-1.729-4.21-1.951v-1.477l6.111,3.053v.88l-6.111,2.7Z" transform="translate(-36.406 -22.535)" fill="#09b25e"/>
          <path id="Path_402" data-name="Path 402" d="M199.78,200.425h0a2.1,2.1,0,0,1-2.967,0l-6.184-6.184,2.967-2.967,6.184,6.184a2.1,2.1,0,0,1,0,2.967" transform="translate(-41.61 -41.751)" fill="#ffa412"/>
          <path id="Path_403" data-name="Path 403" d="M196.861,189.6a.86.86,0,0,0-.22-1.592L184.556,185.2l2.806,12.085a.86.86,0,0,0,1.592.22l2.8-5.1Z" transform="translate(-40.284 -40.425)" fill="#e28c0e"/>
          <rect id="Rectangle_291" data-name="Rectangle 291" width="84.367" height="138.959" transform="translate(17.316 14.811)" fill="#dfdfdf"/>
          <path id="Path_404" data-name="Path 404" d="M106.518,14.811H22.151V6.646A6.645,6.645,0,0,1,28.8,0H99.873a6.645,6.645,0,0,1,6.645,6.645Z" transform="translate(-4.835 0)" fill="#6c52e0"/>
          <path id="Path_405" data-name="Path 405" d="M102.155,204.584H26.513a4.363,4.363,0,0,1-4.363-4.363v-3.515h84.367v3.515a4.363,4.363,0,0,1-4.363,4.363" transform="translate(-4.835 -42.936)" fill="#662d91"/>
          <rect id="Rectangle_292" data-name="Rectangle 292" width="19.785" height="26.209" transform="translate(23.864 20.102)" fill="#ffa412"/>
          <path id="Path_406" data-name="Path 406" d="M42.656,174.735H35.75a5.222,5.222,0,0,1-5.223-5.223v-8.149a5.222,5.222,0,0,1,5.223-5.223h6.907a5.222,5.222,0,0,1,5.223,5.223v8.149a5.222,5.222,0,0,1-5.223,5.223" transform="translate(-6.663 -34.082)" fill="#09b25e"/>
          <path id="Path_407" data-name="Path 407" d="M47.042,183.473H31.363a.836.836,0,1,0,0,1.673H47.042a.836.836,0,0,0,0-1.673" transform="translate(-6.663 -40.048)" fill="#09b25e"/>
          <path id="Path_408" data-name="Path 408" d="M76.639,174.735H69.733a5.222,5.222,0,0,1-5.223-5.223v-8.149a5.222,5.222,0,0,1,5.223-5.223h6.907a5.222,5.222,0,0,1,5.223,5.223v8.149a5.222,5.222,0,0,1-5.223,5.223" transform="translate(-14.081 -34.082)" fill="#3fa9f5"/>
          <path id="Path_409" data-name="Path 409" d="M81.025,183.473H65.346a.836.836,0,1,0,0,1.673H81.025a.836.836,0,1,0,0-1.673" transform="translate(-14.081 -40.048)" fill="#3fa9f5"/>
          <path id="Path_410" data-name="Path 410" d="M110.621,174.735h-6.907a5.222,5.222,0,0,1-5.223-5.223v-8.149a5.222,5.222,0,0,1,5.223-5.223h6.907a5.222,5.222,0,0,1,5.223,5.223v8.149a5.222,5.222,0,0,1-5.223,5.223" transform="translate(-21.499 -34.082)" fill="#e53b07"/>
          <path id="Path_411" data-name="Path 411" d="M115.007,183.473H99.328a.836.836,0,0,0,0,1.673h15.679a.836.836,0,0,0,0-1.673" transform="translate(-21.499 -40.048)" fill="#e53b07"/>
          <path id="Path_412" data-name="Path 412" d="M99.051,73.948H32.484a1.957,1.957,0,0,1,0-3.915H99.051a1.957,1.957,0,1,1,0,3.915" transform="translate(-6.663 -15.287)" fill="#6c52e0"/>
          <path id="Path_413" data-name="Path 413" d="M99.051,83.656H32.484a1.957,1.957,0,0,1,0-3.915H99.051a1.957,1.957,0,0,1,0,3.915" transform="translate(-6.663 -17.406)" fill="#e53b07"/>
          <path id="Path_414" data-name="Path 414" d="M99.051,93.363H32.484a1.957,1.957,0,0,1,0-3.915H99.051a1.957,1.957,0,0,1,0,3.915" transform="translate(-6.663 -19.524)" fill="#3fa9f5"/>
          <rect id="Rectangle_293" data-name="Rectangle 293" width="10.209" height="1.518" transform="translate(87.611 3.703)" fill="#f9fbfc"/>
          <rect id="Rectangle_294" data-name="Rectangle 294" width="10.209" height="1.518" transform="translate(87.611 6.646)" fill="#f9fbfc"/>
          <rect id="Rectangle_295" data-name="Rectangle 295" width="10.209" height="1.518" transform="translate(87.611 9.589)" fill="#f9fbfc"/>
          <rect id="Rectangle_296" data-name="Rectangle 296" width="15.44" height="15.44" transform="translate(77.949 30.853)" fill="#6c52e0"/>
          <path id="Path_415" data-name="Path 415" d="M109.481,52.412a.391.391,0,0,1-.391-.391V44.288a.391.391,0,1,1,.782,0v7.734a.391.391,0,0,1-.391.391" transform="translate(-23.812 -9.582)" fill="#fff"/>
          <path id="Path_416" data-name="Path 416" d="M112.268,49.625h-7.734a.391.391,0,1,1,0-.782h7.734a.391.391,0,0,1,0,.782" transform="translate(-22.732 -10.661)" fill="#fff"/>
          <path id="Path_417" data-name="Path 417" d="M103.995,109.763a6.468,6.468,0,0,0-1.975.31,6.466,6.466,0,0,0-12.566,2.147c0,.069.009.136.011.206a6.466,6.466,0,0,0-4.878,6.263h25.391a6.467,6.467,0,0,0-5.983-8.925" transform="translate(-18.463 -23.083)" fill="#f9fbfc"/>
          <path id="Path_418" data-name="Path 418" d="M45.37,127.817a8.871,8.871,0,0,1,2.713.425,8.886,8.886,0,0,1,17.271,2.95c0,.1-.012.188-.015.282a8.887,8.887,0,0,1,6.7,8.608h-34.9a8.888,8.888,0,0,1,8.224-12.266" transform="translate(-7.963 -26.696)" fill="#f9fbfc"/>
          <path id="Path_419" data-name="Path 419" d="M38.094,8.366A3.092,3.092,0,1,1,35,5.274a3.092,3.092,0,0,1,3.092,3.092" transform="translate(-6.965 -1.151)" fill="#f9fbfc"/>
        </g>
      </g>
    </g>
  </g>
</svg>
