<svg xmlns="http://www.w3.org/2000/svg" xmlns:xlink="http://www.w3.org/1999/xlink" width="568.111" height="398.852" viewBox="0 0 568.111 398.852">
  <defs>
    <clipPath id="clip-path">
      <rect id="Rectangle_298" data-name="Rectangle 298" width="462.345" height="358.078" fill="none"/>
    </clipPath>
    <clipPath id="clip-path-2">
      <rect id="Rectangle_299" data-name="Rectangle 299" width="568.111" height="385.877" fill="none"/>
    </clipPath>
    <clipPath id="clip-path-3">
      <rect id="Rectangle_307" data-name="Rectangle 307" width="469.743" height="315.163" fill="none"/>
    </clipPath>
    <clipPath id="clip-path-4">
      <path id="Path_502" data-name="Path 502" d="M131.818,67.5H100.7a8.182,8.182,0,0,0-8.181,8.182V230.244a8.182,8.182,0,0,0,8.181,8.181H363.369a8.182,8.182,0,0,0,8.181-8.181V75.68a8.182,8.182,0,0,0-8.181-8.182H325.114L232.268,21.139Z" fill="none"/>
    </clipPath>
    <clipPath id="clip-path-5">
      <rect id="Rectangle_322" data-name="Rectangle 322" width="50.117" height="17.529" transform="translate(204.344 66.629)" fill="none"/>
    </clipPath>
    <linearGradient id="linear-gradient" x1="-4.077" y1="14.178" x2="-4.057" y2="14.178" gradientUnits="objectBoundingBox">
      <stop offset="0" stop-color="#ffd33f"/>
      <stop offset="1" stop-color="#ff7364"/>
    </linearGradient>
  </defs>
  <g id="Group_66" data-name="Group 66" transform="translate(-997.221 -648.574)">
    <g id="Group_35" data-name="Group 35" transform="translate(1062.953 689.348)" opacity="0.706">
      <g id="Group_34" data-name="Group 34" clip-path="url(#clip-path)">
        <path id="Path_420" data-name="Path 420" d="M172.995,358.077a124.229,124.229,0,0,1-70-21.554C-9.385,274.716-39.789,124.122,62.1,51.78,158.616-3.662,323.63-19.138,403.947,27.842c8.28,2.228,16.582,8.857,24.716,16.134,18.1,16.186,35.37,46.462,33.549,73.647s-22.738,51.281-24.971,77.943,14.219,55.891,16.392,78.362-9.93,38.186-34.253,40.281-60.869-9.429-82.161-10.456-27.33,8.443-51.831,21.59S217.926,355.316,182.7,357.758q-4.954.343-9.7.319" transform="translate(0 0)" fill="#e7f4ff"/>
      </g>
    </g>
    <g id="Group_36" data-name="Group 36" transform="translate(997.221 648.574)" opacity="0.331">
      <g id="Group_36-2" data-name="Group 36" clip-path="url(#clip-path-2)">
        <path id="Path_421" data-name="Path 421" d="M332.847,331.507c-22.868,3.067-46.465,38.846-81.862,49.707s-91.384,3.4-109.044-29.3C90.893,267.8-21.423,242.251,3.582,144.64,10.866,119.487,31.515,96.017,55.9,88.511s52.5.953,88.415-15.907S223.928,13.565,286.051,2.826,428.718,12.787,483.63,50.872s84.192,93.553,84.479,141.221-28.419,87.536-61.272,118.842-69.849,54.051-99.417,50.6-51.706-33.095-74.574-30.029" transform="translate(0 0)" fill="#e7f4ff"/>
      </g>
    </g>
    <g id="Group_53" data-name="Group 53" transform="translate(1075 676.229)">
      <g id="Group_44" data-name="Group 44">
        <g id="Group_43" data-name="Group 43" clip-path="url(#clip-path-3)">
          <path id="Path_422" data-name="Path 422" d="M469.743,236.2v-2.872a.632.632,0,0,0-.632-.632h-2.326a.832.832,0,0,1-.815-.672,16.321,16.321,0,0,0-.882-2.956.832.832,0,0,1,.353-1.035l1.822-1.052a.7.7,0,0,0,.254-.951l-1.371-2.376a.7.7,0,0,0-.951-.255l-2.041,1.179a.721.721,0,0,1-.9-.149,16.565,16.565,0,0,0-2.38-2.25.721.721,0,0,1-.18-.93l1.159-2.007a.582.582,0,0,0-.213-.794l-2.574-1.486a.58.58,0,0,0-.794.212l-1.2,2.071a.817.817,0,0,1-.972.364,16.339,16.339,0,0,0-3.024-.722.817.817,0,0,1-.707-.809v-2.218a.594.594,0,0,0-.594-.594H447.83a.594.594,0,0,0-.6.594v2.392a.8.8,0,0,1-.644.782,16.325,16.325,0,0,0-3.011.9.8.8,0,0,1-.992-.339l-1.082-1.873a.666.666,0,0,0-.91-.244l-2.427,1.4a.667.667,0,0,0-.244.911l1.1,1.908a.947.947,0,0,1-.194,1.183,16.662,16.662,0,0,0-1.992,2.1.949.949,0,0,1-1.218.237l-1.666-.963a.78.78,0,0,0-1.065.286l-1.288,2.231a.78.78,0,0,0,.285,1.065l1.929,1.114a.774.774,0,0,1,.345.922,16.4,16.4,0,0,0-.738,3.094.774.774,0,0,1-.766.67h-2.092a.759.759,0,0,0-.758.759v2.619a.758.758,0,0,0,.758.758h2.255a.762.762,0,0,1,.749.617,16.4,16.4,0,0,0,.916,3.066.765.765,0,0,1-.325.951l-1.846,1.066a.726.726,0,0,0-.266.993l1.341,2.323a.725.725,0,0,0,.992.266l1.947-1.124a.815.815,0,0,1,1.022.168,16.67,16.67,0,0,0,2.263,2.141.816.816,0,0,1,.2,1.052l-1.008,1.746a.8.8,0,0,0,.293,1.092l2.2,1.269a.8.8,0,0,0,1.092-.293l1.142-1.978a.681.681,0,0,1,.812-.3,16.37,16.37,0,0,0,3.245.774.68.68,0,0,1,.59.675v2.087a.844.844,0,0,0,.844.844h2.448a.844.844,0,0,0,.844-.844v-2.015a.954.954,0,0,1,.768-.934,16.415,16.415,0,0,0,2.761-.824.957.957,0,0,1,1.186.4l1,1.735a.691.691,0,0,0,.944.253l2.385-1.377a.692.692,0,0,0,.253-.944l-1.09-1.887a.947.947,0,0,1,.194-1.182,16.7,16.7,0,0,0,1.994-2.107.947.947,0,0,1,1.216-.236l1.576.91a.885.885,0,0,0,1.209-.324l1.182-2.048a.885.885,0,0,0-.324-1.21l-1.863-1.076a.736.736,0,0,1-.329-.878,16.381,16.381,0,0,0,.752-3.155.737.737,0,0,1,.731-.638h2.249a.632.632,0,0,0,.632-.632m-13.786-2.194a6.3,6.3,0,1,1-4.95-4.952,6.305,6.305,0,0,1,4.95,4.952" fill="#fda428"/>
          <path id="Path_423" data-name="Path 423" d="M298.428,40V36.886a.685.685,0,0,0-.685-.686H295.22a.9.9,0,0,1-.884-.729,17.814,17.814,0,0,0-.957-3.206.9.9,0,0,1,.383-1.123L295.738,30a.755.755,0,0,0,.276-1.032l-1.487-2.577a.756.756,0,0,0-1.032-.277l-2.214,1.279a.781.781,0,0,1-.979-.161,18.014,18.014,0,0,0-2.581-2.441.781.781,0,0,1-.2-1.008l1.257-2.177a.631.631,0,0,0-.231-.862l-2.792-1.612a.629.629,0,0,0-.861.231l-1.3,2.245a.885.885,0,0,1-1.055.4,17.781,17.781,0,0,0-3.28-.782.888.888,0,0,1-.766-.878V17.938a.645.645,0,0,0-.645-.645h-3.2a.645.645,0,0,0-.645.645v2.594a.863.863,0,0,1-.7.848,17.747,17.747,0,0,0-3.266.976.866.866,0,0,1-1.077-.368L267.8,19.957a.723.723,0,0,0-.988-.265l-2.632,1.519a.724.724,0,0,0-.264.989l1.194,2.069a1.026,1.026,0,0,1-.211,1.283,18.015,18.015,0,0,0-2.16,2.284,1.028,1.028,0,0,1-1.321.256l-1.808-1.043a.845.845,0,0,0-1.155.31l-1.4,2.419a.846.846,0,0,0,.309,1.156l2.092,1.208a.838.838,0,0,1,.374,1,17.915,17.915,0,0,0-.8,3.357.839.839,0,0,1-.831.726h-2.269a.823.823,0,0,0-.822.823v2.841a.823.823,0,0,0,.822.823h2.446a.828.828,0,0,1,.813.669,17.737,17.737,0,0,0,.993,3.326.829.829,0,0,1-.352,1.031l-2,1.157a.788.788,0,0,0-.289,1.076L259,51.492a.788.788,0,0,0,1.076.288l2.113-1.22a.886.886,0,0,1,1.108.182,18.038,18.038,0,0,0,2.454,2.323.886.886,0,0,1,.222,1.141L264.876,56.1a.867.867,0,0,0,.317,1.185l2.382,1.376a.868.868,0,0,0,1.185-.318L270,56.2a.738.738,0,0,1,.881-.33,17.766,17.766,0,0,0,3.52.839.74.74,0,0,1,.641.733V59.7a.915.915,0,0,0,.914.915h2.656a.915.915,0,0,0,.915-.915V57.518a1.037,1.037,0,0,1,.834-1.014,17.74,17.74,0,0,0,2.994-.893,1.038,1.038,0,0,1,1.287.44l1.086,1.882a.749.749,0,0,0,1.023.274l2.588-1.494a.749.749,0,0,0,.274-1.023l-1.182-2.048a1.026,1.026,0,0,1,.21-1.282,17.992,17.992,0,0,0,2.163-2.286,1.026,1.026,0,0,1,1.319-.255l1.709.987a.96.96,0,0,0,1.312-.352l1.282-2.222a.961.961,0,0,0-.351-1.312l-2.021-1.167a.8.8,0,0,1-.357-.953,17.756,17.756,0,0,0,.816-3.421.8.8,0,0,1,.792-.693h2.44a.685.685,0,0,0,.685-.685m-14.953-2.38a6.837,6.837,0,1,1-5.369-5.371,6.84,6.84,0,0,1,5.369,5.371" fill="#fda428"/>
          <rect id="Rectangle_304" data-name="Rectangle 304" width="77.063" height="134.129" transform="translate(57.057 48.949) rotate(-39.433)" fill="#39239f"/>
          <path id="Path_424" data-name="Path 424" d="M191.543,106.326l-44.636,36.708a5.734,5.734,0,0,1-8.071-.787L66.5,54.29a5.734,5.734,0,0,1,.786-8.071L111.923,9.511a5.734,5.734,0,0,1,8.071.786L192.33,98.255a5.735,5.735,0,0,1-.787,8.071" fill="#6c52e0"/>
          <path id="Path_425" data-name="Path 425" d="M76.8,47.422a4.695,4.695,0,1,1-6.608-.644,4.7,4.7,0,0,1,6.608.644" fill="#fda428"/>
          <path id="Path_426" data-name="Path 426" d="M118.9,12.716a4.695,4.695,0,1,1-6.608-.644,4.694,4.694,0,0,1,6.608.644" fill="#fda428"/>
          <path id="Path_427" data-name="Path 427" d="M147.145,133.71a4.695,4.695,0,1,1-6.608-.644,4.694,4.694,0,0,1,6.608.644" fill="#39239f"/>
          <path id="Path_428" data-name="Path 428" d="M189.251,99a4.695,4.695,0,1,1-6.608-.644,4.694,4.694,0,0,1,6.608.644" fill="#39239f"/>
          <path id="Path_429" data-name="Path 429" d="M152.206,57.529c6.046,7.351.8,21.656-11.719,31.951s-27.566,12.68-33.612,5.329-.8-21.656,11.719-31.951,27.566-12.68,33.612-5.329" fill="#39239f"/>
          <path id="Path_430" data-name="Path 430" d="M131.551,39.287l7.871,9.571a.715.715,0,1,1-1.09.9l-7.871-9.571a.715.715,0,1,1,1.09-.9" fill="#39239f"/>
          <path id="Path_431" data-name="Path 431" d="M126.73,33.425l2.6,3.158a.715.715,0,1,1-1.09.9l-2.6-3.158a.715.715,0,1,1,1.09-.9" fill="#39239f"/>
          <path id="Path_432" data-name="Path 432" d="M136.591,41.36l-7.871-9.571a.714.714,0,1,0-1.09.9l7.871,9.572a.715.715,0,1,0,1.09-.9" fill="#39239f"/>
          <path id="Path_433" data-name="Path 433" d="M143.434,45.559l-7.871-9.571a.715.715,0,1,0-1.091.9l7.872,9.571a.715.715,0,1,0,1.09-.9" fill="#39239f"/>
          <path id="Path_434" data-name="Path 434" d="M141.412,47.222l-2.6-3.159a.714.714,0,1,0-1.09.9l2.6,3.158a.714.714,0,1,0,1.09-.9" fill="#39239f"/>
          <path id="Path_435" data-name="Path 435" d="M121.823,111.025l7.87,9.571a.714.714,0,1,1-1.089.9l-7.872-9.571a.715.715,0,1,1,1.091-.9" fill="#39239f"/>
          <path id="Path_436" data-name="Path 436" d="M117,105.163l2.6,3.158a.715.715,0,1,1-1.091.9l-2.6-3.158a.715.715,0,1,1,1.09-.9" fill="#39239f"/>
          <path id="Path_437" data-name="Path 437" d="M126.862,113.1l-7.871-9.571a.715.715,0,1,0-1.091.9l7.872,9.571a.714.714,0,1,0,1.09-.9" fill="#39239f"/>
          <path id="Path_438" data-name="Path 438" d="M131.683,118.96l-2.6-3.159a.715.715,0,1,0-1.09.9l2.6,3.158a.714.714,0,1,0,1.09-.9" fill="#39239f"/>
          <rect id="Rectangle_305" data-name="Rectangle 305" width="77.063" height="134.129" transform="translate(15.436 118.518) rotate(-59.594)" fill="#39239f"/>
          <path id="Path_439" data-name="Path 439" d="M161.457,126.03l-29.25,49.842a5.733,5.733,0,0,1-7.847,2.044L26.142,120.277a5.735,5.735,0,0,1-2.044-7.848l29.25-49.842A5.735,5.735,0,0,1,61.2,60.544l98.218,57.639a5.733,5.733,0,0,1,2.043,7.847" fill="#6c52e0"/>
          <path id="Path_440" data-name="Path 440" d="M33.442,110.281a4.695,4.695,0,1,1-6.425,1.673,4.7,4.7,0,0,1,6.425-1.673" fill="#fda428"/>
          <path id="Path_441" data-name="Path 441" d="M61.007,63.189a4.7,4.7,0,1,1-6.425,1.674,4.7,4.7,0,0,1,6.425-1.674" fill="#fda428"/>
          <path id="Path_442" data-name="Path 442" d="M129.217,167.038a4.695,4.695,0,1,1-6.425,1.673,4.7,4.7,0,0,1,6.425-1.673" fill="#39239f"/>
          <path id="Path_443" data-name="Path 443" d="M156.782,119.946a4.695,4.695,0,1,1-6.425,1.673,4.7,4.7,0,0,1,6.425-1.673" fill="#39239f"/>
          <path id="Path_444" data-name="Path 444" d="M107.713,93.78c8.209,4.817,8.214,20.054.01,34.032s-21.507,21.4-29.716,16.587-8.213-20.054-.01-34.032S99.5,88.963,107.713,93.78" fill="#39239f"/>
          <path id="Path_445" data-name="Path 445" d="M82.036,83.774l10.687,6.272a.715.715,0,1,1-.714,1.218L81.321,84.992a.715.715,0,1,1,.715-1.218" fill="#39239f"/>
          <path id="Path_446" data-name="Path 446" d="M75.49,79.933,79.017,82A.715.715,0,1,1,78.3,83.22l-3.527-2.07a.714.714,0,1,1,.715-1.217" fill="#39239f"/>
          <path id="Path_447" data-name="Path 447" d="M87.481,83.983,76.793,77.711a.714.714,0,1,0-.714,1.217L86.767,85.2a.714.714,0,1,0,.714-1.217" fill="#39239f"/>
          <path id="Path_448" data-name="Path 448" d="M95.353,85.567,84.665,79.295a.715.715,0,1,0-.714,1.218l10.687,6.271a.715.715,0,1,0,.715-1.217" fill="#39239f"/>
          <path id="Path_449" data-name="Path 449" d="M94.028,87.825,90.5,85.755a.714.714,0,1,0-.714,1.217l3.527,2.07a.714.714,0,1,0,.714-1.217" fill="#39239f"/>
          <path id="Path_450" data-name="Path 450" d="M97.628,154.47l10.688,6.272a.715.715,0,1,1-.715,1.218l-10.687-6.272a.715.715,0,1,1,.714-1.218" fill="#39239f"/>
          <path id="Path_451" data-name="Path 451" d="M91.081,150.628l3.527,2.07a.715.715,0,1,1-.715,1.217l-3.526-2.07a.714.714,0,1,1,.714-1.217" fill="#39239f"/>
          <path id="Path_452" data-name="Path 452" d="M103.073,154.679l-10.688-6.272a.714.714,0,1,0-.714,1.217l10.688,6.272a.714.714,0,1,0,.714-1.217" fill="#39239f"/>
          <path id="Path_453" data-name="Path 453" d="M109.619,158.52l-3.527-2.07a.715.715,0,1,0-.714,1.218l3.527,2.069a.714.714,0,1,0,.714-1.217" fill="#39239f"/>
          <rect id="Rectangle_306" data-name="Rectangle 306" width="77.064" height="134.129" transform="translate(18.702 182.068) rotate(-75.817)" fill="#39239f"/>
          <path id="Path_454" data-name="Path 454" d="M161.008,148.485l-14.16,56.03a5.734,5.734,0,0,1-6.964,4.154l-110.411-27.9a5.734,5.734,0,0,1-4.154-6.964l14.16-56.029a5.734,5.734,0,0,1,6.965-4.155l110.41,27.9a5.734,5.734,0,0,1,4.154,6.964" fill="#6c52e0"/>
          <path id="Path_455" data-name="Path 455" d="M33.69,169.128a4.695,4.695,0,1,1-5.7,3.4,4.694,4.694,0,0,1,5.7-3.4" fill="#fda428"/>
          <path id="Path_456" data-name="Path 456" d="M47,116.21a4.695,4.695,0,1,1-5.7,3.4,4.694,4.694,0,0,1,5.7-3.4" fill="#fda428"/>
          <path id="Path_457" data-name="Path 457" d="M141.508,196.867a4.695,4.695,0,1,1-5.7,3.4,4.694,4.694,0,0,1,5.7-3.4" fill="#39239f"/>
          <path id="Path_458" data-name="Path 458" d="M154.819,143.949a4.695,4.695,0,1,1-5.7,3.4,4.694,4.694,0,0,1,5.7-3.4" fill="#39239f"/>
          <path id="Path_459" data-name="Path 459" d="M100.394,132.534c9.228,2.332,13.489,16.961,9.518,32.674s-14.671,26.56-23.9,24.228-13.489-16.96-9.517-32.673,14.67-26.561,23.9-24.229" fill="#39239f"/>
          <path id="Path_460" data-name="Path 460" d="M72.944,130.1l12.014,3.036a.715.715,0,1,1-.346,1.369L72.6,131.469a.715.715,0,1,1,.346-1.369" fill="#39239f"/>
          <path id="Path_461" data-name="Path 461" d="M65.585,128.24l3.964,1a.715.715,0,1,1-.345,1.369l-3.965-1a.715.715,0,1,1,.346-1.369" fill="#39239f"/>
          <path id="Path_462" data-name="Path 462" d="M78.231,128.779l-12.015-3.036a.714.714,0,1,0-.345,1.368l12.014,3.036a.714.714,0,1,0,.346-1.368" fill="#39239f"/>
          <path id="Path_463" data-name="Path 463" d="M86.231,128.1l-12.014-3.036a.714.714,0,1,0-.346,1.368l12.014,3.037a.715.715,0,1,0,.346-1.369" fill="#39239f"/>
          <path id="Path_464" data-name="Path 464" d="M85.59,130.639l-3.965-1a.714.714,0,1,0-.346,1.368l3.965,1a.714.714,0,1,0,.346-1.368" fill="#39239f"/>
          <path id="Path_465" data-name="Path 465" d="M107.666,193.625l12.014,3.036a.715.715,0,1,1-.346,1.369l-12.014-3.036a.715.715,0,1,1,.346-1.369" fill="#39239f"/>
          <path id="Path_466" data-name="Path 466" d="M120.311,194.164l-3.965-1A.714.714,0,1,0,116,194.53l3.965,1a.714.714,0,1,0,.346-1.368" fill="#39239f"/>
          <path id="Path_467" data-name="Path 467" d="M362.365,245.7H101.705a15.186,15.186,0,0,1-15.186-15.187V75.522a15.187,15.187,0,0,1,15.186-15.187h260.66a15.188,15.188,0,0,1,15.187,15.187V230.514A15.187,15.187,0,0,1,362.365,245.7" fill="#eef"/>
          <path id="Path_468" data-name="Path 468" d="M363.22,238.425H100.851a8.33,8.33,0,0,1-8.33-8.33V75.829a8.329,8.329,0,0,1,8.33-8.33H363.22a8.329,8.329,0,0,1,8.33,8.33V230.1a8.33,8.33,0,0,1-8.33,8.33" fill="#39239f"/>
          <path id="Path_469" data-name="Path 469" d="M0,305.349l84.364-57.076a16.168,16.168,0,0,1,9.06-2.777H369.866a20.259,20.259,0,0,1,11.354,3.48l83.325,56.373Z" fill="#dfdff4"/>
          <path id="Path_470" data-name="Path 470" d="M115.119,262.432H125.8a9.266,9.266,0,0,0,5.405-2.069l7.765-7.061c1.257-1.143,1.054-2.069-.453-2.069H129.2a10.53,10.53,0,0,0-5.4,2.069l-9.133,7.061c-1.478,1.143-1.275,2.069.453,2.069" fill="#92aacc"/>
          <path id="Path_471" data-name="Path 471" d="M159.739,251.232h-9.5a7.7,7.7,0,0,0-4.663,2l-7.324,7.206c-1.121,1.1-.678,2,.99,2h10.9a6.774,6.774,0,0,0,4.663-2l5.928-7.206c.908-1.1.464-2-.99-2" fill="#92aacc"/>
          <path id="Path_472" data-name="Path 472" d="M180.962,251.232H171.27a5.507,5.507,0,0,0-3.962,1.925l-5.435,7.35c-.786,1.063-.12,1.924,1.488,1.924h11.115a4.84,4.84,0,0,0,3.962-1.924l4.012-7.35c.58-1.063-.086-1.925-1.488-1.925" fill="#92aacc"/>
          <path id="Path_473" data-name="Path 473" d="M187.482,262.432h11.333c1.548,0,3.026-.829,3.3-1.853l2.015-7.494c.275-1.023-.6-1.852-1.946-1.852H192.3a3.855,3.855,0,0,0-3.3,1.852l-3.465,7.494c-.474,1.024.4,1.853,1.945,1.853" fill="#92aacc"/>
          <path id="Path_474" data-name="Path 474" d="M211.6,262.432h11.551c1.487,0,2.687-.8,2.679-1.781l-.062-7.638a2.143,2.143,0,0,0-2.362-1.78H213.336a2.656,2.656,0,0,0-2.679,1.78l-1.417,7.638c-.182.984.875,1.781,2.363,1.781" fill="#92aacc"/>
          <path id="Path_475" data-name="Path 475" d="M235.725,262.432h11.769c1.427,0,2.366-.765,2.1-1.709l-2.218-7.782a2.875,2.875,0,0,0-2.74-1.708H234.37c-1.244,0-2.183.765-2.1,1.708l.712,7.782c.086.944,1.313,1.709,2.74,1.709" fill="#92aacc"/>
          <path id="Path_476" data-name="Path 476" d="M259.845,262.432h11.987c1.367,0,2.064-.733,1.556-1.637l-4.454-7.926a3.825,3.825,0,0,0-3.079-1.636H255.4c-1.192,0-1.889.732-1.556,1.636l2.92,7.926a3.367,3.367,0,0,0,3.078,1.637" fill="#92aacc"/>
          <path id="Path_477" data-name="Path 477" d="M287.079,251.232H276.436c-1.139,0-1.611.7-1.053,1.565l5.208,8.07a4.388,4.388,0,0,0,3.375,1.564h12.2c1.307,0,1.779-.7,1.054-1.564l-6.77-8.07a5,5,0,0,0-3.376-1.565" fill="#92aacc"/>
          <path id="Path_478" data-name="Path 478" d="M308.088,262.432h12.423c1.247,0,1.512-.668.592-1.492l-9.166-8.215a6.379,6.379,0,0,0-3.634-1.492H297.47c-1.087,0-1.352.668-.592,1.492l7.576,8.215a5.609,5.609,0,0,0,3.634,1.492" fill="#92aacc"/>
          <path id="Path_479" data-name="Path 479" d="M329.526,251.232H318.5c-1.035,0-1.111.636-.17,1.421l10.024,8.358a6.991,6.991,0,0,0,3.852,1.42H344.85c1.186,0,1.262-.635.17-1.42l-11.642-8.358a7.954,7.954,0,0,0-3.852-1.421" fill="#92aacc"/>
          <path id="Path_480" data-name="Path 480" d="M93.993,279.231h12.73a10.25,10.25,0,0,0,6-2.069l7.766-7.061c1.256-1.143.784-2.07-1.054-2.07H108.077a11.448,11.448,0,0,0-6.005,2.07l-9.133,7.061c-1.478,1.143-1.006,2.069,1.054,2.069" fill="#92aacc"/>
          <path id="Path_481" data-name="Path 481" d="M145.337,268.031h-11.6a8.536,8.536,0,0,0-5.243,2l-7.323,7.206c-1.121,1.1-.418,2,1.57,2h12.99c1.988,0,4.335-.894,5.243-2l5.928-7.206c.908-1.1.205-2-1.57-2" fill="#92aacc"/>
          <path id="Path_482" data-name="Path 482" d="M171.234,268.031H159.407a6.233,6.233,0,0,0-4.521,1.925l-5.434,7.35c-.786,1.063.13,1.925,2.047,1.925h13.249c1.916,0,3.94-.862,4.521-1.925l4.011-7.35c.581-1.063-.336-1.925-2.046-1.925" fill="#92aacc"/>
          <path id="Path_483" data-name="Path 483" d="M180.251,279.231h13.51c1.844,0,3.563-.83,3.838-1.853l2.015-7.494c.275-1.023-.837-1.853-2.483-1.853H185.072c-1.647,0-3.365.83-3.839,1.853l-3.465,7.494c-.474,1.023.638,1.853,2.483,1.853" fill="#92aacc"/>
          <path id="Path_484" data-name="Path 484" d="M209,279.231h13.769c1.773,0,3.2-.8,3.2-1.781l-.062-7.638c-.008-.983-1.3-1.781-2.879-1.781H210.737c-1.583,0-3.013.8-3.2,1.781l-1.417,7.638c-.182.984,1.107,1.781,2.88,1.781" fill="#92aacc"/>
          <path id="Path_485" data-name="Path 485" d="M237.757,279.231h14.029c1.7,0,2.862-.765,2.593-1.709l-2.218-7.782c-.269-.943-1.718-1.709-3.236-1.709H236.4c-1.518,0-2.679.766-2.593,1.709l.711,7.782c.087.944,1.536,1.709,3.237,1.709" fill="#92aacc"/>
          <path id="Path_486" data-name="Path 486" d="M266.509,279.231H280.8c1.629,0,2.539-.733,2.031-1.637l-4.454-7.926a4.39,4.39,0,0,0-3.554-1.637H262.067c-1.455,0-2.364.733-2.031,1.637l2.92,7.926c.332.9,1.924,1.637,3.553,1.637" fill="#92aacc"/>
          <path id="Path_487" data-name="Path 487" d="M300.718,268.031H287.732c-1.391,0-2.066.7-1.508,1.565l5.208,8.07a5.011,5.011,0,0,0,3.83,1.565H309.81c1.558,0,2.233-.7,1.508-1.565l-6.77-8.07a5.611,5.611,0,0,0-3.83-1.565" fill="#92aacc"/>
          <path id="Path_488" data-name="Path 488" d="M324.014,279.231h14.808c1.486,0,1.945-.668,1.026-1.493l-9.166-8.214a7.019,7.019,0,0,0-4.068-1.493H313.4c-1.326,0-1.785.669-1.025,1.493l7.576,8.214a6.271,6.271,0,0,0,4.067,1.493" fill="#92aacc"/>
          <path id="Path_489" data-name="Path 489" d="M352.512,268.031h-13.45c-1.263,0-1.523.636-.582,1.421L348.5,277.81a7.689,7.689,0,0,0,4.264,1.421h15.069c1.414,0,1.675-.636.582-1.421l-11.642-8.358a8.581,8.581,0,0,0-4.264-1.421" fill="#92aacc"/>
          <path id="Path_490" data-name="Path 490" d="M161.887,284.172H148.01c-2.008,0-4.272.862-5.058,1.925l-5.435,7.35c-.786,1.063.371,1.924,2.584,1.924h15.3c2.213,0,4.478-.861,5.058-1.924l4.011-7.35c.581-1.063-.576-1.925-2.583-1.925" fill="#92aacc"/>
          <path id="Path_491" data-name="Path 491" d="M313.822,284.172h-8.69c0-.005-124.155-.005-124.155-.005s-2.853.005-2.853.005c-1.932,0-3.882.829-4.355,1.853l-3.466,7.494c-.473,1.023.87,1.852,3,1.852H322.914c1.8,0,2.67-.7,1.945-1.564l-6.77-8.07a6.293,6.293,0,0,0-4.267-1.565" fill="#92aacc"/>
          <path id="Path_492" data-name="Path 492" d="M374.6,284.172H328.7c-1.556,0-2.2.668-1.442,1.493l7.576,8.214a7,7,0,0,0,4.483,1.492h50.6c1.632,0,2.071-.635.978-1.42l-11.641-8.358a9.318,9.318,0,0,0-4.661-1.421" fill="#92aacc"/>
          <path id="Path_493" data-name="Path 493" d="M131.258,284.172h-8.824c.005-.005-27.67-.005-27.67-.005s-6.984.005-6.984.005a12.493,12.493,0,0,0-6.583,2.069L72.065,293.3c-1.478,1.143-.748,2.069,1.631,2.069h47.936c2.379,0,5.07-.926,6.011-2.069l5.817-7.061c.942-1.143-.045-2.069-2.2-2.069" fill="#92aacc"/>
          <path id="Path_494" data-name="Path 494" d="M.017,305.267c0,.113-.017.224-.017.338a9.586,9.586,0,0,0,9.558,9.558H454.971a9.585,9.585,0,0,0,9.558-9.558c0-.114-.013-.225-.017-.338Z" fill="#92aacc"/>
          <path id="Path_495" data-name="Path 495" d="M293.064,37.081h-.135c-1.014.019-7.585.569-7.908,11.549s-7.191,11.53-8.251,11.549h25.736V49.68c.257-12.249-9.442-12.6-9.442-12.6" fill="#92aacc"/>
        </g>
      </g>
      <g id="Group_46" data-name="Group 46">
        <g id="Group_45" data-name="Group 45" clip-path="url(#clip-path-4)">
          <rect id="Rectangle_308" data-name="Rectangle 308" width="197.767" height="130.142" transform="translate(131.819 94.819)" fill="#92aacc"/>
          <rect id="Rectangle_309" data-name="Rectangle 309" width="229.859" height="5.219" transform="translate(118.16 220.974)" fill="#bbcff2"/>
          <rect id="Rectangle_310" data-name="Rectangle 310" width="243.739" height="17.602" transform="translate(112.053 225.748)" fill="#fff"/>
          <rect id="Rectangle_311" data-name="Rectangle 311" width="246.461" height="8.349" transform="translate(108.332 84.027)" fill="#bbcff2"/>
          <path id="Path_496" data-name="Path 496" d="M108.278,84.048l123.258-53.19,123.257,53.19Z" fill="#fff"/>
          <path id="Path_497" data-name="Path 497" d="M143.818,78.226,231.1,40.561l87.282,37.665Z" fill="#eef"/>
          <rect id="Rectangle_312" data-name="Rectangle 312" width="30.648" height="106.157" transform="translate(127.242 108.144)" fill="#eef"/>
          <rect id="Rectangle_313" data-name="Rectangle 313" width="35.978" height="10.66" transform="translate(124.577 210.304)" fill="#fff"/>
          <path id="Path_498" data-name="Path 498" d="M157.39,104.074H127.823a.533.533,0,0,1-.08,0,7.457,7.457,0,1,0,7.128,5.241h15.391a7.466,7.466,0,1,0,7.128-5.241" fill="#fff"/>
          <rect id="Rectangle_314" data-name="Rectangle 314" width="30.648" height="106.157" transform="translate(187.798 108.144)" fill="#eef"/>
          <rect id="Rectangle_315" data-name="Rectangle 315" width="35.978" height="10.66" transform="translate(185.133 210.304)" fill="#fff"/>
          <path id="Path_499" data-name="Path 499" d="M217.945,104.074H188.378a.533.533,0,0,1-.08,0,7.458,7.458,0,1,0,7.128,5.241h15.391a7.466,7.466,0,1,0,7.128-5.241" fill="#fff"/>
          <rect id="Rectangle_316" data-name="Rectangle 316" width="30.648" height="106.157" transform="translate(248.353 108.144)" fill="#eef"/>
          <rect id="Rectangle_317" data-name="Rectangle 317" width="35.978" height="10.66" transform="translate(245.688 210.304)" fill="#fff"/>
          <path id="Path_500" data-name="Path 500" d="M278.5,104.074H248.933a.533.533,0,0,1-.08,0,7.457,7.457,0,1,0,7.128,5.241h15.391a7.466,7.466,0,1,0,7.128-5.241" fill="#fff"/>
          <rect id="Rectangle_318" data-name="Rectangle 318" width="30.648" height="106.157" transform="translate(308.909 108.144)" fill="#eef"/>
          <rect id="Rectangle_319" data-name="Rectangle 319" width="35.978" height="10.66" transform="translate(306.243 210.304)" fill="#fff"/>
          <path id="Path_501" data-name="Path 501" d="M339.056,104.074H309.489a.534.534,0,0,1-.08,0,7.458,7.458,0,1,0,7.128,5.241h15.391a7.466,7.466,0,1,0,7.128-5.241" fill="#fff"/>
          <rect id="Rectangle_320" data-name="Rectangle 320" width="235.189" height="11.993" transform="translate(115.829 92.376)" fill="#fff"/>
        </g>
      </g>
      <g id="Group_48" data-name="Group 48">
        <g id="Group_47" data-name="Group 47" clip-path="url(#clip-path-5)">
          <rect id="Rectangle_321" data-name="Rectangle 321" width="50.117" height="17.529" transform="translate(204.344 66.629)" fill="url(#linear-gradient)"/>
        </g>
      </g>
      <g id="Group_50" data-name="Group 50">
        <g id="Group_49" data-name="Group 49" clip-path="url(#clip-path-4)">
          <path id="Path_503" data-name="Path 503" d="M214.444,71.559h2.687a4.57,4.57,0,0,1,2.331.466,1.581,1.581,0,0,1,.761,1.451,1.835,1.835,0,0,1-.332,1.106,1.48,1.48,0,0,1-.874.59v.053a1.789,1.789,0,0,1,1.037.632A1.909,1.909,0,0,1,220.375,77a1.965,1.965,0,0,1-.787,1.651,3.441,3.441,0,0,1-2.146.6h-3Zm2.081,2.955h.627a1.136,1.136,0,0,0,.693-.185.641.641,0,0,0,.244-.548q0-.646-.979-.647h-.585Zm0,1.522v1.617h.732q.975,0,.975-.822a.7.7,0,0,0-.261-.589,1.194,1.194,0,0,0-.756-.206Z" fill="#fff"/>
          <path id="Path_504" data-name="Path 504" d="M226.438,79.26l-.379-1.443h-2.5l-.39,1.443h-2.286l2.513-7.733h2.776l2.544,7.733Zm-.811-3.15-.332-1.264q-.115-.421-.282-1.091t-.218-.958q-.048.269-.187.885t-.619,2.428Z" fill="#fff"/>
          <path id="Path_505" data-name="Path 505" d="M236.878,79.26h-2.729l-2.812-5.425h-.048q.1,1.28.1,1.954V79.26h-1.843v-7.7h2.718l2.8,5.352h.032q-.074-1.164-.074-1.87V71.559h1.854Z" fill="#fff"/>
          <path id="Path_506" data-name="Path 506" d="M245.121,79.26h-2.349l-1.523-2.944-.616.368V79.26h-2.091v-7.7h2.091V74.9a9.115,9.115,0,0,1,.637-.985l1.618-2.36h2.275l-2.428,3.45Z" fill="#fff"/>
        </g>
      </g>
      <g id="Group_52" data-name="Group 52">
        <g id="Group_51" data-name="Group 51" clip-path="url(#clip-path-3)">
          <path id="Path_508" data-name="Path 508" d="M300.506,49.68l0,173.166H420.455l0-162.721h.022v-10.5c.257-12.249-9.442-12.6-9.442-12.6h-.022l-119.944.055s9.7.35,9.442,12.6" fill="#6c52e0"/>
          <path id="Path_509" data-name="Path 509" d="M370.51,75.494H326.353a2.909,2.909,0,0,1,0-5.73H370.51a2.909,2.909,0,0,1,0,5.73" fill="#bbcff2"/>
          <path id="Path_510" data-name="Path 510" d="M396.976,75.494H381.769a2.909,2.909,0,0,1,0-5.73h15.207a2.909,2.909,0,0,1,0,5.73" fill="#bbcff2"/>
          <path id="Path_511" data-name="Path 511" d="M352.818,85.951h44.157a2.909,2.909,0,0,0,0-5.73H352.818a2.909,2.909,0,0,0,0,5.73" fill="#bbcff2"/>
          <path id="Path_512" data-name="Path 512" d="M327.606,96.579h67.14c2.021,0,3.659-1.283,3.659-2.865s-1.638-2.865-3.659-2.865h-67.14c-2.021,0-3.659,1.283-3.659,2.865s1.638,2.865,3.659,2.865" fill="#bbcff2"/>
          <path id="Path_513" data-name="Path 513" d="M326.353,85.951H341.56a2.909,2.909,0,0,0,0-5.73H326.353a2.909,2.909,0,0,0,0,5.73" fill="#bbcff2"/>
          <path id="Path_514" data-name="Path 514" d="M370.075,138.038H325.918a2.909,2.909,0,0,1,0-5.73h44.157a2.909,2.909,0,0,1,0,5.73" fill="#bbcff2"/>
          <path id="Path_515" data-name="Path 515" d="M396.541,138.038H381.334a2.909,2.909,0,0,1,0-5.73h15.207a2.909,2.909,0,0,1,0,5.73" fill="#bbcff2"/>
          <path id="Path_516" data-name="Path 516" d="M352.383,148.495H396.54a2.909,2.909,0,0,0,0-5.73H352.383a2.909,2.909,0,0,0,0,5.73" fill="#bbcff2"/>
          <path id="Path_517" data-name="Path 517" d="M327.171,159.122h67.14c2.021,0,3.659-1.282,3.659-2.864s-1.638-2.865-3.659-2.865h-67.14c-2.021,0-3.659,1.283-3.659,2.865s1.638,2.864,3.659,2.864" fill="#bbcff2"/>
          <path id="Path_518" data-name="Path 518" d="M325.918,148.495h15.207a2.909,2.909,0,0,0,0-5.73H325.918a2.909,2.909,0,0,0,0,5.73" fill="#bbcff2"/>
          <path id="Path_519" data-name="Path 519" d="M370.51,106.5H326.353a2.909,2.909,0,0,1,0-5.73H370.51a2.909,2.909,0,0,1,0,5.73" fill="#bbcff2"/>
          <path id="Path_520" data-name="Path 520" d="M396.976,106.5H381.769a2.909,2.909,0,0,1,0-5.73h15.207a2.909,2.909,0,0,1,0,5.73" fill="#bbcff2"/>
          <path id="Path_521" data-name="Path 521" d="M352.818,116.962h44.157a2.909,2.909,0,0,0,0-5.73H352.818a2.909,2.909,0,0,0,0,5.73" fill="#bbcff2"/>
          <path id="Path_522" data-name="Path 522" d="M326.353,127.589H370.51a2.909,2.909,0,0,0,0-5.73H326.353a2.909,2.909,0,0,0,0,5.73" fill="#bbcff2"/>
          <path id="Path_523" data-name="Path 523" d="M326.353,116.962H341.56a2.909,2.909,0,0,0,0-5.73H326.353a2.909,2.909,0,0,0,0,5.73" fill="#bbcff2"/>
          <path id="Path_524" data-name="Path 524" d="M300.51,216.215v37.573c0,9.6,7.665,10.176,7.665,10.176h.141c1.056-.016,7.9-.472,8.222-9.594a15.953,15.953,0,0,1,.272-2.473H420.415V216.215Z" fill="#6c52e0"/>
          <path id="Path_525" data-name="Path 525" d="M339.439,263.91l-.244-18.9H434.78a19.75,19.75,0,0,0-1.128,6.41c-.353,11.87-7.87,12.464-9.03,12.485H417.85Z" fill="#4333b5"/>
          <path id="Path_526" data-name="Path 526" d="M308.5,263.965c1.16-.021,7.909-.615,8.263-12.486s7.544-12.464,8.653-12.485h.149a10.944,10.944,0,0,1,8.889,6.019h11.136v18.9H335.9v.055Z" fill="#4333b5"/>
          <path id="Path_527" data-name="Path 527" d="M421.414,238.949V249.71H335.661c-1.208-10.387-10.2-10.716-10.2-10.716l95.951-.045" fill="#39239f"/>
          <path id="Path_528" data-name="Path 528" d="M416.831,238.943c13.282-.006,22.28-.009,22.28-.008.024,0,9.049.33,10.229,10.774H416.831Z" fill="#39239f"/>
          <path id="Path_529" data-name="Path 529" d="M381.393,184.316l3.925-7.021,3.924,7.021Z" fill="#50c9f7"/>
          <path id="Path_530" data-name="Path 530" d="M372.946,188.753l-.109-8.044,6.907,4.116Z" fill="#50c9f7"/>
          <path id="Path_531" data-name="Path 531" d="M367.848,196.823l-4.113-6.912,8.037.109Z" fill="#50c9f7"/>
          <path id="Path_532" data-name="Path 532" d="M367.465,206.363l-7.015-3.928,7.015-3.927Z" fill="#50c9f7"/>
          <path id="Path_533" data-name="Path 533" d="M371.9,214.817l-8.037.109,4.113-6.912Z" fill="#50c9f7"/>
          <path id="Path_534" data-name="Path 534" d="M379.962,219.919l-6.906,4.116.109-8.044Z" fill="#50c9f7"/>
          <path id="Path_535" data-name="Path 535" d="M389.495,220.3l-3.925,7.021-3.924-7.021Z" fill="#50c9f7"/>
          <path id="Path_536" data-name="Path 536" d="M397.941,215.865l.109,8.044-6.906-4.116Z" fill="#50c9f7"/>
          <path id="Path_537" data-name="Path 537" d="M403.039,207.8l4.113,6.912-8.037-.109Z" fill="#50c9f7"/>
          <path id="Path_538" data-name="Path 538" d="M403.423,198.255l7.015,3.928-7.015,3.927Z" fill="#50c9f7"/>
          <path id="Path_539" data-name="Path 539" d="M398.989,189.8l8.037-.109-4.113,6.912Z" fill="#50c9f7"/>
          <path id="Path_540" data-name="Path 540" d="M390.925,184.7l6.906-4.116-.109,8.044Z" fill="#50c9f7"/>
          <path id="Path_541" data-name="Path 541" d="M384.145,213.521c-1.639,0-2.3-4.392-2.3-5.122a3.5,3.5,0,0,1,1.2-2.78.694.694,0,0,1,.274-.076c-.12-.407-.244-.819-.368-1.234-.183-.607-.369-1.228-.553-1.855a21.255,21.255,0,0,1-12.669,6.867l-.117-.69c4.427-.744,9.388-2.968,12.547-7a32.212,32.212,0,0,1-1.519-8.2c0-1.4,0-5.66,2.538-5.66a2.043,2.043,0,0,1,1.506.7,6.772,6.772,0,0,1,1.393,4.309,15.973,15.973,0,0,1-3.147,9.005c.228.788.462,1.569.69,2.328.211.7.42,1.4.616,2.074.088.108.174.219.258.33.362.473.705.921,1.1.921a2.242,2.242,0,0,0,1.375-.834c-.011-.152-.016-.317-.016-.494,0-1.64,1.229-3,1.857-3a.435.435,0,0,1,.315.128.447.447,0,0,1,.123.315,6.055,6.055,0,0,1-1.551,3.284,1.776,1.776,0,0,0,.1.414c.074.178.133.178.153.178.436,0,1.249-.967,2.118-2.346a.615.615,0,0,1-.034-.2c0-.13,0-.208.376-.451a12.435,12.435,0,0,1-.609-3.674c0-1.249.218-5.326,3.019-5.326a1.285,1.285,0,0,1,1.286,1.36c0,1.354-1.122,4.369-2.482,6.949l.076-.041c.825-.444,2.14-1.111,3.713-1.766a.9.9,0,0,1,.9,1.536l-.358.28a10.648,10.648,0,0,0-2.417,2.3.163.163,0,0,0,0,.186.158.158,0,0,0,.174.067c.211-.048.43-.1.654-.155a1.243,1.243,0,0,1,1.041,2.2c-2.733,2.048-4.866,3.759-6.339,5.087l-.468-.52c1.488-1.342,3.638-3.067,6.388-5.128a.542.542,0,0,0-.455-.961c-.228.056-.451.109-.667.158a.867.867,0,0,1-.921-1.313,11.12,11.12,0,0,1,2.576-2.473l.356-.279a.2.2,0,0,0-.2-.338,40.028,40.028,0,0,0-4.429,2.168c.138.39.284.75.426,1.072a2.8,2.8,0,0,1,1.05,1.862v.35l-.364.024c-.38,0-.931-1.077-1.267-1.825l-.263-.246c-.12-.112-.232-.216-.332-.314-.932,1.44-1.866,2.455-2.552,2.455a.855.855,0,0,1-.8-.609c-.013-.031-.025-.064-.037-.1a2.47,2.47,0,0,1-1.523.71,1.418,1.418,0,0,1-.919-.363,18.169,18.169,0,0,1,.744,4.3,1.357,1.357,0,0,1-1.274,1.454m-.81-7.269a3.033,3.033,0,0,0-.793,2.147c0,1.107.833,4.422,1.6,4.422a.669.669,0,0,0,.575-.754,22.88,22.88,0,0,0-1.119-5.549,2.3,2.3,0,0,0-.266-.266m5.129-2.155a3.018,3.018,0,0,0-.783,1.606,5.86,5.86,0,0,0,.783-1.606m4.359-7.964c-2.208,0-2.319,3.853-2.319,4.626a11.252,11.252,0,0,0,.408,2.889c1.3-2.376,2.5-5.281,2.5-6.855a.6.6,0,0,0-.587-.66m-9.649-7.662c-1.237,0-1.838,1.622-1.838,4.96a29.924,29.924,0,0,0,1.345,7.484,15.334,15.334,0,0,0,2.693-8.173,6.049,6.049,0,0,0-1.2-3.792,1.349,1.349,0,0,0-1-.479" fill="#fff"/>
          <path id="Path_542" data-name="Path 542" d="M135.254,243.364,29.158,214.37a5.348,5.348,0,0,1-3.745-6.545L40.5,152.609a5.347,5.347,0,0,1,6.552-3.731l106.1,28.995a5.348,5.348,0,0,1,3.745,6.544l-15.09,55.216a5.347,5.347,0,0,1-6.553,3.731" fill="#09b25e"/>
          <path id="Path_543" data-name="Path 543" d="M80.3,220.679l-9.525-2.6a1.559,1.559,0,1,1,.822-3.008l9.525,2.6a1.559,1.559,0,1,1-.822,3.008" fill="#29226d"/>
          <path id="Path_544" data-name="Path 544" d="M62.618,204.751l.6-2.191a2.2,2.2,0,0,1,4.253,1.163l-.6,2.19a2.2,2.2,0,0,1-4.254-1.162" fill="#362982"/>
          <path id="Path_545" data-name="Path 545" d="M68.209,206.279l.6-2.191a2.2,2.2,0,0,1,4.253,1.163l-.6,2.19a2.2,2.2,0,0,1-4.254-1.162" fill="#362982"/>
          <path id="Path_546" data-name="Path 546" d="M73.766,207.8l.6-2.191a2.2,2.2,0,0,1,4.253,1.163l-.6,2.19a2.2,2.2,0,0,1-4.254-1.162" fill="#29226d"/>
          <path id="Path_547" data-name="Path 547" d="M79.461,209.354l.6-2.191a2.2,2.2,0,0,1,4.253,1.163l-.6,2.191a2.2,2.2,0,0,1-4.253-1.163" fill="#29226d"/>
          <path id="Path_548" data-name="Path 548" d="M88.721,211.884l.6-2.191a2.2,2.2,0,0,1,4.253,1.163l-.6,2.19a2.2,2.2,0,0,1-4.253-1.162" fill="#29226d"/>
          <path id="Path_549" data-name="Path 549" d="M94.312,213.412l.6-2.191a2.2,2.2,0,0,1,4.253,1.163l-.6,2.19a2.2,2.2,0,0,1-4.254-1.162" fill="#29226d"/>
          <path id="Path_550" data-name="Path 550" d="M99.869,214.931l.6-2.191a2.2,2.2,0,0,1,4.253,1.163l-.6,2.191a2.205,2.205,0,0,1-4.254-1.163" fill="#362982"/>
          <path id="Path_551" data-name="Path 551" d="M105.564,216.487l.6-2.191a2.2,2.2,0,0,1,4.253,1.163l-.6,2.19a2.2,2.2,0,0,1-4.254-1.162" fill="#29226d"/>
          <path id="Path_552" data-name="Path 552" d="M115.029,219.074l.6-2.191a2.2,2.2,0,0,1,4.253,1.163l-.6,2.19a2.2,2.2,0,0,1-4.254-1.162" fill="#29226d"/>
          <path id="Path_553" data-name="Path 553" d="M120.62,220.6l.6-2.191a2.2,2.2,0,0,1,4.253,1.163l-.6,2.191a2.205,2.205,0,0,1-4.254-1.163" fill="#29226d"/>
          <path id="Path_554" data-name="Path 554" d="M126.177,222.12l.6-2.191a2.2,2.2,0,0,1,4.253,1.163l-.6,2.19a2.2,2.2,0,0,1-4.254-1.162" fill="#29226d"/>
          <path id="Path_555" data-name="Path 555" d="M131.872,223.677l.6-2.191a2.2,2.2,0,0,1,4.252,1.163l-.6,2.19a2.2,2.2,0,0,1-4.254-1.162" fill="#29226d"/>
          <path id="Path_556" data-name="Path 556" d="M135.541,185.422a5.59,5.59,0,1,1-3.922-6.854,5.583,5.583,0,0,1,3.922,6.854" fill="#fff"/>
          <path id="Path_557" data-name="Path 557" d="M143.181,187.443a5.59,5.59,0,1,1-3.922-6.854,5.583,5.583,0,0,1,3.922,6.854" fill="#6c52e0"/>
          <path id="Path_558" data-name="Path 558" d="M124.749,182.522a5.585,5.585,0,0,0,10.775,2.945Z" fill="#fff"/>
          <path id="Path_559" data-name="Path 559" d="M186.785,155.656c1.284,2.74-.161,6.754,3.022,8.271,1.507.719,3.674.593,5.107,1.385a3.5,3.5,0,0,1,1.606,3.716,37.634,37.634,0,0,1-1.22,4.314,2.363,2.363,0,0,0-.05,1.408c.414,1.1,2.182,1.369,3.343,2.039,1.809,1.044,2.089,3.16,1.284,5.026a16.115,16.115,0,0,1-4.249,5.089,17.524,17.524,0,0,1-4.907,3.355,14.42,14.42,0,0,1-9.844.058c-4.658-1.556-8.023-4.771-9.061-8.654-.764-2.861-.35-6.1-2.1-8.587-1.1-1.567-2.98-2.688-4.279-4.152a8.065,8.065,0,0,1-1.2-8.794,9.586,9.586,0,0,1,2.129-2.685,4.276,4.276,0,0,0,1.505-3.011c.459-2.024,2.2-2.464,4.993-2.87,5.294-.77,12.177.354,13.928,4.092" fill="#432672"/>
          <path id="Path_560" data-name="Path 560" d="M186.281,181.795c-1.441-4.531-3.512-7.369-4.738-8.312-1.273-.978-7.432-3.252-3.82.744a3.43,3.43,0,0,1-.1.837c-.63,2.638.349,5.153,1.5,7.551.53,1.107,1.093,2.187,1.555,3.245l6.645.259a33.182,33.182,0,0,0-1.044-4.324" fill="#23106c"/>
          <path id="Path_561" data-name="Path 561" d="M185.369,207.856c2.8-8.825,2.931-16.134,1.955-21.737l-6.644-.259c.026.06.055.12.08.18a28.9,28.9,0,0,1,1.676,5.215,32.327,32.327,0,0,1-.283,16.2,5.562,5.562,0,0,0-1.073,1.907,3.466,3.466,0,0,0-.228,1.818,1.507,1.507,0,0,0,1.2,1.242,3.3,3.3,0,0,0,1.142-.058c.073-.019.143-.046.214-.07l.116-.05c.217-.123.439-.229.651-.362l.037-.02a20.14,20.14,0,0,0,.869-2.074,4.169,4.169,0,0,0,.312-1.748c-.006-.061-.016-.122-.028-.183" fill="#ff969b"/>
          <path id="Path_562" data-name="Path 562" d="M163.863,265.3l-6.57-2.263c-.323-.111-.717.018-.782.256l-1.029,3.8c-.059.221.2.424.533.424h7.037c1.849,0,2.453-1.652.811-2.218" fill="#ff4d57"/>
          <path id="Path_563" data-name="Path 563" d="M165.247,180.47c3.6-3.385.309-8.8-3.322-5.39-2.855,2.686-5.154,4.593-6.992,6.113l3.972,4.491c2.449-1.957,5.367-4.3,6.342-5.214" fill="#23106c"/>
          <path id="Path_564" data-name="Path 564" d="M173.25,263.351c.568,3.23,3.357,3,4.514,1.2l2.268.809c1.526.543.965,2.131-.753,2.131H172.74c-.314,0-.551-.2-.5-.408l.957-3.652a.264.264,0,0,1,.049-.077" fill="#ff4d57"/>
          <path id="Path_565" data-name="Path 565" d="M174.124,232.523c.579-7.187-.787-14.706-2.781-21.709,0,0-9.2-1.074-9.273-.944,5.491,15.846,6.377,19.085,3.42,27.444l7.621.032a20.588,20.588,0,0,0,1.013-4.823" fill="#1946a9"/>
          <path id="Path_566" data-name="Path 566" d="M165.491,237.314c-.445,1.259-.975,2.63-1.592,4.181-1.959,4.927-4.015,9.706-5.665,14.679a6.275,6.275,0,0,0,.929,1.179,6.275,6.275,0,0,1-.929-1.179c-.525,1.582-1.01,3.183-1.436,4.816-1.12,4.286,2.734,7.353,5.073,1.618.619-1.516,1.218-2.938,1.8-4.284,4.524-10.5,7.842-16.1,9.443-20.978Z" fill="#ff969b"/>
          <path id="Path_567" data-name="Path 567" d="M183.01,211.086c0-.094-.009-.182-.014-.273h-9.208c.008.091.011.179.024.273a182.45,182.45,0,0,1,1.393,26.268l6.316.026c.992-10.557,1.469-19.963,1.489-26.294" fill="#1946a9"/>
          <path id="Path_568" data-name="Path 568" d="M175.205,237.354q-.014,1.017-.035,2.032a150.7,150.7,0,0,1-1.219,16.845c-.064.464-.132.918-.2,1.366-.115.745-.237,1.471-.367,2.17a10.2,10.2,0,0,0-.133,3.584c.567,3.23,3.356,3,4.513,1.2a3.157,3.157,0,0,0,.462-1.2c.3-1.851.585-3.712.857-5.573.058-.4.119-.792.176-1.188.834-5.832,1.523-11.656,2.071-17.2q.1-1.01.192-2.006Z" fill="#ff969b"/>
          <path id="Path_569" data-name="Path 569" d="M175.2,169.6l-.012-3.34a3.9,3.9,0,0,0,2.6-3.9l-.011-3.207a4.3,4.3,0,0,0-1.283-3.107l-5.329,3.237,0,.975a1.25,1.25,0,0,0,.009,2.456c.023.127.038.254.058.379a.628.628,0,0,0-.046.229l.022,6.1a8.623,8.623,0,0,1,3.984.18" fill="#ff969b"/>
          <path id="Path_570" data-name="Path 570" d="M170.572,170.35a1.447,1.447,0,0,0-.231,2.1q1.273,1.482,2.5,3.007a1.066,1.066,0,0,0,1.762-.142,35.638,35.638,0,0,0,1.849-3.466c.431-.889-.326-1.617-1.253-2.06v-.2a8.623,8.623,0,0,0-3.984-.18l0,.512a6.053,6.053,0,0,0-.642.421" fill="#ff969b"/>
          <path id="Path_571" data-name="Path 571" d="M171.5,214.092c-.049,0-.1-.008-.144-.011v23.168h5.69v-23.9a16.188,16.188,0,0,1-5.546.744" fill="#1946a9"/>
          <path id="Path_572" data-name="Path 572" d="M183.01,205.808c0-.24-.006-.48-.007-.72,0-.106,0-.212,0-.318-.005-.247,0-.485-.009-.722-.1-.555-.2-1.085-.284-1.617-.015-.07-.035-.138-.048-.209a.181.181,0,0,1-.014-.061c0-.049,0-.1-.006-.146-.4-2.594-.675-5.221-1.163-7.8-.085-.45-.161-.906-.229-1.363a31.619,31.619,0,0,1-.734-5.955c-.01-.579,0-1.159.018-1.739.06-2.537.309-5.079.54-7.623-.284-.289-.583-.564-.89-.831a10.527,10.527,0,0,0,2.316-2.344c-2.83-2.79-5.23-4.187-7.3-4.763v.2c.927.443,1.683,1.17,1.253,2.06a35.87,35.87,0,0,1-1.849,3.466,1.066,1.066,0,0,1-1.762.141q-1.224-1.524-2.5-3.007a1.446,1.446,0,0,1,.232-2.1,6.32,6.32,0,0,1,.641-.422l0-.511a11.664,11.664,0,0,0-2.267.7,9.673,9.673,0,0,0-2.5,1.384c-.162.118-.249.19-.249.19a10.625,10.625,0,0,0-3.974,3.388c-.461.965-.016,6.157,1.761,8.477a36.859,36.859,0,0,1,1.892,7.176,12.813,12.813,0,0,1-.054,2.841,13.416,13.416,0,0,1-.345,1.42c-1,3.268-3.158,6.064-3.812,9.436a11.223,11.223,0,0,0,.118,4.75,2.443,2.443,0,0,0,.652,1.158,14.68,14.68,0,0,0,8.925,3.748c.049,0,.1.009.144.011a16.164,16.164,0,0,0,5.546-.744,23.442,23.442,0,0,0,5.849-2.8l.012-.6.087-.027c-.012-1.371.008-2.742.008-4.115Z" fill="#23106c"/>
          <path id="Path_573" data-name="Path 573" d="M166.4,206.234c1.793-1.243-.688-5.283-3.253-5.514-.184-.438-6.1-8.75-7.9-12.076.36-.327,1.889-1.544,3.661-2.96l-3.972-4.49c-2.659,2.2-4.347,3.581-5.292,5.268-1.626,2.9,8.523,14.035,10.8,16.449a4.786,4.786,0,0,0,2.165,1.508c1.013,1.589,2.743,2.546,3.8,1.815" fill="#ff969b"/>
          <path id="Path_574" data-name="Path 574" d="M146.148,260.459H36.161a5.348,5.348,0,0,1-5.337-5.326V197.892a5.348,5.348,0,0,1,5.337-5.326H146.148a5.348,5.348,0,0,1,5.338,5.326v57.241a5.348,5.348,0,0,1-5.338,5.326" fill="#ffe65c"/>
          <path id="Path_575" data-name="Path 575" d="M87.156,253.064H77.281a1.559,1.559,0,1,1,0-3.119h9.875a1.559,1.559,0,1,1,0,3.119" fill="#3fa9f5"/>
          <path id="Path_576" data-name="Path 576" d="M65.9,242.36v-2.271a2.205,2.205,0,0,1,4.41,0v2.271a2.205,2.205,0,0,1-4.41,0" fill="#3fa9f5"/>
          <path id="Path_577" data-name="Path 577" d="M71.7,242.36v-2.271a2.205,2.205,0,0,1,4.41,0v2.271a2.205,2.205,0,0,1-4.41,0" fill="#3fa9f5"/>
          <path id="Path_578" data-name="Path 578" d="M77.46,242.36v-2.271a2.2,2.2,0,0,1,4.409,0v2.271a2.2,2.2,0,0,1-4.409,0" fill="#3fa9f5"/>
          <path id="Path_579" data-name="Path 579" d="M83.363,242.36v-2.271a2.205,2.205,0,0,1,4.41,0v2.271a2.205,2.205,0,0,1-4.41,0" fill="#3fa9f5"/>
          <path id="Path_580" data-name="Path 580" d="M92.963,242.36v-2.271a2.2,2.2,0,0,1,4.409,0v2.271a2.2,2.2,0,0,1-4.409,0" fill="#3fa9f5"/>
          <path id="Path_581" data-name="Path 581" d="M98.759,242.36v-2.271a2.205,2.205,0,0,1,4.41,0v2.271a2.205,2.205,0,0,1-4.41,0" fill="#3fa9f5"/>
          <path id="Path_582" data-name="Path 582" d="M104.52,242.36v-2.271a2.205,2.205,0,0,1,4.41,0v2.271a2.205,2.205,0,0,1-4.41,0" fill="#3fa9f5"/>
          <path id="Path_583" data-name="Path 583" d="M110.423,242.36v-2.271a2.205,2.205,0,0,1,4.41,0v2.271a2.205,2.205,0,0,1-4.41,0" fill="#3fa9f5"/>
          <path id="Path_584" data-name="Path 584" d="M120.235,242.36v-2.271a2.2,2.2,0,0,1,4.409,0v2.271a2.2,2.2,0,0,1-4.409,0" fill="#3fa9f5"/>
          <path id="Path_585" data-name="Path 585" d="M126.031,242.36v-2.271a2.205,2.205,0,0,1,4.41,0v2.271a2.205,2.205,0,0,1-4.41,0" fill="#3fa9f5"/>
          <path id="Path_586" data-name="Path 586" d="M131.792,242.36v-2.271a2.2,2.2,0,0,1,4.41,0v2.271a2.2,2.2,0,0,1-4.41,0" fill="#3fa9f5"/>
          <path id="Path_587" data-name="Path 587" d="M137.7,242.36v-2.271a2.2,2.2,0,0,1,4.41,0v2.271a2.2,2.2,0,0,1-4.41,0" fill="#3fa9f5"/>
          <path id="Path_588" data-name="Path 588" d="M131.15,204.491a5.59,5.59,0,1,1-5.59-5.577,5.584,5.584,0,0,1,5.59,5.577" fill="#fff"/>
          <path id="Path_589" data-name="Path 589" d="M139.053,204.426a5.59,5.59,0,1,1-5.59-5.577,5.584,5.584,0,0,1,5.59,5.577" fill="#6c52e0"/>
          <path id="Path_590" data-name="Path 590" d="M119.976,204.539a5.585,5.585,0,0,0,11.17,0Z" fill="#fff"/>
          <path id="Path_591" data-name="Path 591" d="M304.931,276.968l6.2-4.972c.305-.245.778-.27.94-.05l2.57,3.506c.15.205-.047.517-.41.652l-7.571,2.827c-1.989.742-3.275-.72-1.726-1.963" fill="#ff4d57"/>
          <path id="Path_592" data-name="Path 592" d="M300.806,253.478c1.059,6.564,4.534,13.895,6.6,20.2,1.157,3.542,6.366,2.445,5.331-.51a92.566,92.566,0,0,1-5.373-34.364c1.269-.022,19.1.3,25.637-.22,6.109-.483.6-9.276-5.554-9.422-7.727-.182-7.988,0-17.135-.071-5.181-.04-10.976,2.141-11.313,8.288-.28,5.13,1,11.03,1.812,16.1" fill="#292959"/>
          <path id="Path_593" data-name="Path 593" d="M322.584,175.272a9.575,9.575,0,0,0,.407,2.515l.787,2.6a9.376,9.376,0,0,0,1.708,3.2l-.582-1.921a5.318,5.318,0,0,1,.392-4.152l7.509,1.9.352,1.158a1.238,1.238,0,0,1,1.256.427,9.316,9.316,0,0,0-.348-3.725l-.787-2.6c-3.534-.973-7.153-.4-10.694.6" fill="#482c5b"/>
          <path id="Path_594" data-name="Path 594" d="M333.156,180.568l-.351-1.158-7.51-1.9a5.318,5.318,0,0,0-.392,4.152l.582,1.921.572,1.886a4.834,4.834,0,0,0,4.517,3.679l1.4,4.624a.828.828,0,0,0,1.029.549l3.158-.956a.827.827,0,0,0,.55-1.027l-2.465-8.133a.828.828,0,0,0-.146-.27c-.023-.151-.062-.3-.1-.453a1.4,1.4,0,0,0,.8-1.826,1.71,1.71,0,0,0-.4-.664,1.242,1.242,0,0,0-1.257-.427" fill="#ff969b"/>
          <path id="Path_595" data-name="Path 595" d="M347.827,193.519c-1.465-1.54-3.8-1.793-5.933-1.819-.87-.01-1.913.006-3.064.054-.57.024-1.177.061-1.8.1-1.312.092-2.715.224-4.166.412a54.917,54.917,0,0,0-5.621,1.012A4.305,4.305,0,0,0,325,194.389c-4.971,5.442-2.234,16.288-1.367,17.588,3.228,4.838,2.221,10.912-.119,16.116a14.914,14.914,0,0,1-4.066,7.714h26.2q2.106-17.666,3.568-35.4c.2-2.41.283-5.136-1.384-6.889" fill="#ff4d57"/>
          <path id="Path_596" data-name="Path 596" d="M315.519,278.476l4.9-6.257c.241-.308.7-.441.9-.263l3.3,2.827c.192.164.072.513-.25.728l-6.725,4.481c-1.767,1.178-3.353.048-2.129-1.516" fill="#ff4d57"/>
          <path id="Path_597" data-name="Path 597" d="M310.856,253.534c1.059,6.564,4.534,13.895,6.6,20.2,1.157,3.542,6.366,2.445,5.331-.51a92.568,92.568,0,0,1-5.373-34.364c1.269-.022,19.1.3,25.637-.22,6.109-.483.6-9.276-5.554-9.422-7.727-.182-7.988,0-17.135-.071-5.181-.04-10.976,2.14-11.312,8.288-.281,5.13.994,11.03,1.811,16.1" fill="#383872"/>
          <path id="Path_598" data-name="Path 598" d="M336.538,196.033l-4.884.714a2.263,2.263,0,1,1-.655-4.478l4.884-.715a2.263,2.263,0,1,1,.655,4.479" fill="#ff969b"/>
          <path id="Path_599" data-name="Path 599" d="M333.763,223.989c2.275-.82,4.2-.468,4.3.787s-1.666,2.937-3.941,3.757-4.2.467-4.3-.787,1.666-2.937,3.941-3.757" fill="#ff969b"/>
          <path id="Path_600" data-name="Path 600" d="M342,197.763a3.9,3.9,0,0,1,2.754-5.468,5.616,5.616,0,0,1,5.734,3.727l2.389,6.823-7.593,2.787Z" fill="#ff4d57"/>
          <path id="Path_601" data-name="Path 601" d="M337.353,220.728c2.688-2.134,7.306-5.325,10.861-8.085l-2.926-7.011,7.593-2.787,2.494,7.123a5.512,5.512,0,0,1-1.31,5.793c-4.515,4.3-13.3,9.06-15.915,10.207-5.485,2.4-5.594-1.431-.8-5.24" fill="#ff969b"/>
          <path id="Path_602" data-name="Path 602" d="M332.7,229.219H310.779a1.354,1.354,0,0,1-1.234-.795l-6.267-13.843a1.353,1.353,0,0,1,1.235-1.91h21.923a1.354,1.354,0,0,1,1.235.8l6.266,13.843a1.352,1.352,0,0,1-1.234,1.909" fill="#eef"/>
          <path id="Path_603" data-name="Path 603" d="M243.269,258.313c.011-.04.011.04.011.04s-.011-.027-.011-.04" fill="#ffcd5a"/>
          <path id="Path_604" data-name="Path 604" d="M243.28,258.273v-2.407c.115,2.349,10.247,4.247,22.741,4.247,9.578,0,17.759-1.117,21.114-2.7,1.046-.492,1.638-1.028,1.638-1.591v5.761c-.272,2.327-10.34,4.2-22.746,4.2-12.427,0-22.511-1.878-22.731-4.209-.016,0-.016-.06-.016-.06v-3.243Z" fill="#ff9f5c"/>
          <path id="Path_605" data-name="Path 605" d="M288.773,255.826c0-2.368-10.187-4.287-22.752-4.287s-22.752,1.919-22.741,4.327c.115,2.349,10.247,4.247,22.741,4.247,9.578,0,17.759-1.117,21.114-2.7,1.046-.492,1.638-1.028,1.638-1.591m-3.541,0c0,1.838-8.6,3.328-19.211,3.328s-19.211-1.49-19.211-3.328,8.6-3.328,19.211-3.328,19.211,1.49,19.211,3.328" fill="#ffcd5a"/>
          <path id="Path_606" data-name="Path 606" d="M266.021,259.153c-10.61,0-19.211-1.49-19.211-3.328s8.6-3.327,19.211-3.327,19.211,1.49,19.211,3.327-8.6,3.328-19.211,3.328" fill="#ff9f5c"/>
          <path id="Path_607" data-name="Path 607" d="M243.269,251.5c.011-.04.011.04.011.04s-.011-.026-.011-.04" fill="#ffcd5a"/>
          <path id="Path_608" data-name="Path 608" d="M243.28,251.463v-2.407c.115,2.349,10.247,4.247,22.741,4.247,9.578,0,17.759-1.117,21.114-2.7,1.046-.492,1.638-1.028,1.638-1.591v5.761c-.272,2.326-10.34,4.2-22.746,4.2-12.427,0-22.511-1.878-22.731-4.209-.016,0-.016-.06-.016-.06v-3.243Z" fill="#ff9f5c"/>
          <path id="Path_609" data-name="Path 609" d="M288.773,249.016c0-2.368-10.187-4.287-22.752-4.287s-22.752,1.919-22.741,4.327c.115,2.349,10.247,4.247,22.741,4.247,9.578,0,17.759-1.117,21.114-2.7,1.046-.491,1.638-1.028,1.638-1.591m-3.541,0c0,1.838-8.6,3.328-19.211,3.328s-19.211-1.49-19.211-3.328,8.6-3.328,19.211-3.328,19.211,1.49,19.211,3.328" fill="#ffcd5a"/>
          <path id="Path_610" data-name="Path 610" d="M266.021,252.344c-10.61,0-19.211-1.49-19.211-3.328s8.6-3.327,19.211-3.327,19.211,1.49,19.211,3.327-8.6,3.328-19.211,3.328" fill="#ff9f5c"/>
          <path id="Path_611" data-name="Path 611" d="M239.267,244.2c.011-.04.011.04.011.04s-.011-.027-.011-.04" fill="#ffcd5a"/>
          <path id="Path_612" data-name="Path 612" d="M239.278,244.157V241.75c.115,2.349,10.247,4.247,22.741,4.247,9.578,0,17.759-1.117,21.114-2.7,1.046-.492,1.638-1.028,1.638-1.591v5.761c-.272,2.327-10.34,4.2-22.746,4.2-12.428,0-22.511-1.878-22.731-4.209-.016,0-.016-.06-.016-.06v-3.243Z" fill="#ff9f5c"/>
          <path id="Path_613" data-name="Path 613" d="M284.771,241.71c0-2.368-10.186-4.287-22.752-4.287s-22.752,1.919-22.741,4.327c.115,2.349,10.247,4.247,22.741,4.247,9.578,0,17.759-1.117,21.114-2.7,1.046-.492,1.638-1.028,1.638-1.591m-3.541,0c0,1.838-8.6,3.328-19.211,3.328s-19.211-1.49-19.211-3.328,8.6-3.328,19.211-3.328,19.211,1.49,19.211,3.328" fill="#ffcd5a"/>
          <path id="Path_614" data-name="Path 614" d="M262.019,245.037c-10.61,0-19.211-1.49-19.211-3.328s8.6-3.327,19.211-3.327,19.211,1.49,19.211,3.327-8.6,3.328-19.211,3.328" fill="#ff9f5c"/>
          <path id="Path_615" data-name="Path 615" d="M243.269,237.387c.011-.04.011.04.011.04s-.011-.026-.011-.04" fill="#ffcd5a"/>
          <path id="Path_616" data-name="Path 616" d="M243.28,237.347V234.94c.115,2.349,10.247,4.248,22.741,4.248,9.578,0,17.759-1.117,21.114-2.7,1.046-.493,1.638-1.028,1.638-1.592v5.761c-.272,2.327-10.34,4.2-22.746,4.2-12.427,0-22.511-1.878-22.731-4.21-.016,0-.016-.059-.016-.059v-3.243Z" fill="#ff9f5c"/>
          <path id="Path_617" data-name="Path 617" d="M288.773,234.9c0-2.368-10.187-4.287-22.752-4.287s-22.752,1.919-22.741,4.327c.115,2.349,10.247,4.247,22.741,4.247,9.578,0,17.759-1.117,21.114-2.7,1.046-.492,1.638-1.028,1.638-1.591m-3.541,0c0,1.838-8.6,3.327-19.211,3.327s-19.211-1.489-19.211-3.327,8.6-3.328,19.211-3.328,19.211,1.49,19.211,3.328" fill="#ffcd5a"/>
          <path id="Path_618" data-name="Path 618" d="M266.021,238.228c-10.61,0-19.211-1.49-19.211-3.327s8.6-3.328,19.211-3.328,19.211,1.49,19.211,3.328-8.6,3.327-19.211,3.327" fill="#ff9f5c"/>
          <path id="Path_619" data-name="Path 619" d="M246.15,230.246c.011-.04.011.04.011.04s-.011-.026-.011-.04" fill="#ffcd5a"/>
          <path id="Path_620" data-name="Path 620" d="M246.161,230.206V227.8c.115,2.349,10.247,4.248,22.741,4.248,9.578,0,17.759-1.117,21.114-2.7,1.046-.493,1.638-1.028,1.638-1.592v5.762c-.272,2.326-10.34,4.2-22.746,4.2-12.427,0-22.511-1.878-22.731-4.21-.016,0-.016-.058-.016-.058v-3.244Z" fill="#ff9f5c"/>
          <path id="Path_621" data-name="Path 621" d="M291.654,227.76c0-2.368-10.186-4.287-22.752-4.287s-22.751,1.919-22.741,4.327c.115,2.349,10.247,4.247,22.741,4.247,9.578,0,17.759-1.117,21.114-2.7,1.046-.492,1.638-1.028,1.638-1.591m-3.541,0c0,1.838-8.6,3.327-19.211,3.327s-19.211-1.489-19.211-3.327,8.6-3.328,19.211-3.328,19.211,1.49,19.211,3.328" fill="#ffcd5a"/>
          <path id="Path_622" data-name="Path 622" d="M268.9,231.087c-10.61,0-19.211-1.49-19.211-3.327s8.6-3.328,19.211-3.328,19.211,1.49,19.211,3.328-8.6,3.327-19.211,3.327" fill="#ff9f5c"/>
          <path id="Path_623" data-name="Path 623" d="M243.269,223.437c.011-.04.011.04.011.04s-.011-.027-.011-.04" fill="#ffcd5a"/>
          <path id="Path_624" data-name="Path 624" d="M243.28,223.4V220.99c.115,2.349,10.247,4.247,22.741,4.247,9.578,0,17.759-1.117,21.114-2.7,1.046-.492,1.638-1.028,1.638-1.591v5.761c-.272,2.327-10.34,4.2-22.746,4.2-12.427,0-22.511-1.878-22.731-4.209-.016,0-.016-.06-.016-.06V223.4Z" fill="#ff9f5c"/>
          <path id="Path_625" data-name="Path 625" d="M288.773,220.95c0-2.368-10.187-4.287-22.752-4.287s-22.752,1.919-22.741,4.327c.115,2.349,10.247,4.247,22.741,4.247,9.578,0,17.759-1.117,21.114-2.7,1.046-.492,1.638-1.028,1.638-1.591m-3.541,0c0,1.838-8.6,3.328-19.211,3.328s-19.211-1.49-19.211-3.328,8.6-3.328,19.211-3.328,19.211,1.49,19.211,3.328" fill="#ffcd5a"/>
          <path id="Path_626" data-name="Path 626" d="M266.021,224.278c-10.61,0-19.211-1.49-19.211-3.328s8.6-3.327,19.211-3.327,19.211,1.49,19.211,3.327-8.6,3.328-19.211,3.328" fill="#ffe65c"/>
          <path id="Path_627" data-name="Path 627" d="M187.554,258.77c.01-.038.01.039.01.039s-.01-.026-.01-.039" fill="#ffcd5a"/>
          <path id="Path_628" data-name="Path 628" d="M187.565,258.732V256.4c.111,2.272,9.91,4.108,21.993,4.108,9.264,0,17.175-1.081,20.42-2.608,1.012-.476,1.584-.994,1.584-1.539v5.572c-.263,2.25-10,4.061-22,4.061-12.019,0-21.771-1.817-21.984-4.072-.015,0-.015-.057-.015-.057v-3.137Z" fill="#ff9f5c"/>
          <path id="Path_629" data-name="Path 629" d="M231.561,256.365c0-2.29-9.851-4.146-22-4.146s-22,1.856-21.994,4.184c.112,2.272,9.91,4.108,21.994,4.108,9.263,0,17.174-1.08,20.419-2.607,1.012-.476,1.584-.995,1.584-1.539m-3.424,0c0,1.777-8.318,3.218-18.579,3.218s-18.58-1.441-18.58-3.218,8.319-3.218,18.58-3.218,18.579,1.441,18.579,3.218" fill="#ffcd5a"/>
          <path id="Path_630" data-name="Path 630" d="M209.558,259.584c-10.261,0-18.579-1.441-18.579-3.218s8.318-3.218,18.579-3.218,18.579,1.44,18.579,3.218-8.318,3.218-18.579,3.218" fill="#ffe65c"/>
          <path id="Path_631" data-name="Path 631" d="M194.7,252.063c.01-.038.01.039.01.039s-.01-.026-.01-.039" fill="#ffda58"/>
          <path id="Path_632" data-name="Path 632" d="M194.712,252.025V249.7c.111,2.272,9.91,4.108,21.993,4.108,9.264,0,17.175-1.081,20.42-2.608,1.012-.476,1.584-.994,1.584-1.539v5.572c-.262,2.25-10,4.06-22,4.06-12.019,0-21.77-1.816-21.984-4.071-.015,0-.015-.057-.015-.057v-3.137Z" fill="#ffb65a"/>
          <path id="Path_633" data-name="Path 633" d="M238.709,249.658c0-2.29-9.851-4.146-22-4.146s-22,1.856-21.994,4.184c.112,2.272,9.911,4.108,21.994,4.108,9.263,0,17.175-1.08,20.42-2.607,1.012-.476,1.583-1,1.583-1.539m-3.424,0c0,1.777-8.318,3.218-18.579,3.218s-18.58-1.441-18.58-3.218,8.319-3.218,18.58-3.218,18.579,1.441,18.579,3.218" fill="#ffda58"/>
          <path id="Path_634" data-name="Path 634" d="M216.706,252.876c-10.261,0-18.58-1.441-18.58-3.217s8.319-3.22,18.58-3.22,18.579,1.442,18.579,3.22-8.319,3.217-18.579,3.217" fill="#ffb65a"/>
          <path id="Path_635" data-name="Path 635" d="M194.7,245.478c.01-.039.01.039.01.039s-.01-.026-.01-.039" fill="#ffcd5a"/>
          <path id="Path_636" data-name="Path 636" d="M194.712,245.439v-2.328c.111,2.272,9.91,4.107,21.993,4.107,9.264,0,17.175-1.08,20.42-2.606,1.012-.477,1.584-.995,1.584-1.54v5.572c-.262,2.25-10,4.06-22,4.06-12.019,0-21.77-1.816-21.984-4.071-.015,0-.015-.057-.015-.057v-3.137Z" fill="#ff9f5c"/>
          <path id="Path_637" data-name="Path 637" d="M238.709,243.073c0-2.29-9.851-4.146-22-4.146s-22,1.856-21.994,4.185c.112,2.271,9.911,4.107,21.994,4.107,9.263,0,17.175-1.08,20.42-2.607,1.012-.476,1.583-.995,1.583-1.539m-3.424,0c0,1.777-8.318,3.218-18.579,3.218s-18.58-1.441-18.58-3.218,8.319-3.218,18.58-3.218,18.579,1.441,18.579,3.218" fill="#ffcd5a"/>
          <path id="Path_638" data-name="Path 638" d="M216.706,246.291c-10.261,0-18.58-1.441-18.58-3.218s8.319-3.218,18.58-3.218,18.579,1.44,18.579,3.218-8.319,3.218-18.579,3.218" fill="#ffe65c"/>
          <path id="Path_639" data-name="Path 639" d="M80.519,274.312l7.059-2.359c.348-.117.772.013.843.258l1.129,3.89c.066.227-.208.437-.571.439l-7.575.042c-1.99.011-2.649-1.68-.885-2.27" fill="#482c5b"/>
          <path id="Path_640" data-name="Path 640" d="M87.81,212.768c-.009.1-.012.2-.029.309a195.106,195.106,0,0,0-1.493,32.11,154.658,154.658,0,0,0,1.724,19.825c.186,1.135.387,2.235.6,3.282,1.849,8.891-5.223,8-5.94,4.1-.464-2.531-.9-5.078-1.308-7.624-1.066-6.622-1.954-13.236-2.665-19.536-1.453-12.886-2.18-24.456-2.248-32.089,0-.106.01-.206.015-.309Z" fill="#383872"/>
          <path id="Path_641" data-name="Path 641" d="M98.337,274.611l6.836-2.24c.337-.111.746.017.814.253l1.07,3.763c.063.219-.2.42-.554.42H99.181c-1.924,0-2.552-1.636-.844-2.2" fill="#482c5b"/>
          <path id="Path_642" data-name="Path 642" d="M72.573,187.465c1.3-2.046,2.917-4.552,4.29-6.627a3.73,3.73,0,0,1,5.485-.82,4.7,4.7,0,0,1,.662,6.588c-1.777,2.188-3.756,4.625-4.235,5.187-.143.168-.289.346-.434.524l-.046.057c-.5.611-1.019,1.265-1.548,1.921l-5.112-5.344c.285-.455.6-.954.938-1.486" fill="#fff"/>
          <path id="Path_643" data-name="Path 643" d="M62.7,179.477a4.548,4.548,0,0,1,.937-3.25c0-.012,0-.025,0-.036l3.439,1.532a18.86,18.86,0,0,1,.531,2.81c.751,3,1.553,7.323,2.454,10.956q.4-.644.873-1.413c.2-.326.438-.707.7-1.125l5.113,5.344c-.141.174-.277.346-.42.52a19.216,19.216,0,0,1-4.282,4.126c-3.145,1.9-5.037,1.622-5.227,1.587l-.018.033c-3.893-.7-4.117-17.444-4.1-21.084" fill="#ff969b"/>
          <path id="Path_644" data-name="Path 644" d="M99.536,218.535a3.017,3.017,0,0,0,1.691,1.376c-6.962,19.224-7.937,19.147-2.927,31.133,2.038,4.878,4.177,9.609,5.894,14.533.547,1.567,1.051,3.152,1.5,4.768,1.165,4.244-2.845,7.28-5.28,1.6-.643-1.5-1.266-2.91-1.87-4.242-6.284-13.876-10.332-19.1-10.878-25.545-.667-7.851,1.132-16.1,3.553-23.626Z" fill="#383872"/>
          <path id="Path_645" data-name="Path 645" d="M109.015,183.694l.037.227a12,12,0,0,1-.162,4.658c-2.472,10.59-4.757,21.136-7.631,31.623-2.132-.072-4.308-.144-6.5-.216l4.056-43.8c4.213.978,8.238,3.134,10.2,7.508" fill="#fff"/>
          <path id="Path_646" data-name="Path 646" d="M86.577,175.877a34.208,34.208,0,0,1,12.239.309l-4.056,43.8c-5.187-.171-10.467-.343-15.521-.513l1.113-41.623a20.591,20.591,0,0,1,6.225-1.973" fill="#fff"/>
          <path id="Path_647" data-name="Path 647" d="M75.879,183.14c.414-2.376,2.208-4.1,4.474-5.29L79.24,219.473l-.183-.006A3.023,3.023,0,0,1,77,218.874a3.29,3.29,0,0,1-.74-2.092c-1.142-10.765-2.23-23.012-.376-33.642" fill="#fff"/>
          <path id="Path_648" data-name="Path 648" d="M92.724,165.276l.015-1.056L87,160.661a4.646,4.646,0,0,0-1.424,3.351l-.025,1.8a8.219,8.219,0,0,1-.572-3.164l.033-2.368a8.408,8.408,0,0,1,.327-2.2,17.706,17.706,0,0,1,9.044,2.27c0,.018,0,.035,0,.053l-.032,2.368a8.235,8.235,0,0,1-.68,3.194,1.086,1.086,0,0,0-.948-.69" fill="#483c6e"/>
          <path id="Path_649" data-name="Path 649" d="M88.25,175.952l.058-4.215a4.214,4.214,0,0,1-2.78-4.254l.023-1.669.025-1.8A4.652,4.652,0,0,1,87,160.661l5.739,3.559-.015,1.056a1.085,1.085,0,0,1,.948.691,1.53,1.53,0,0,1,.138.653,1.234,1.234,0,0,1-1.123,1.315c-.026.137-.043.274-.066.409a.689.689,0,0,1,.047.249l-.1,7.416a.723.723,0,0,1-.73.709l-2.877-.038a.72.72,0,0,1-.709-.728" fill="#ff969b"/>
          <path id="Path_650" data-name="Path 650" d="M101.094,210.636a11.17,11.17,0,0,1,1.692-2.69c2.531-3.057,4.67-7,7.289-10.412l-.113-.143c-.342-.437-.669-.849-.99-1.252l-.453-.567c-.241-.3-.471-.584-.7-.87l6.7-5.278c2.532,3.049,4.821,5.924,5.158,6.868a2.48,2.48,0,0,1-.2,1.728c-1.834,4.489-12.249,12.808-14.795,14.776a6.845,6.845,0,0,1-2.087,1.181c-1.89.574-2.491-1.035-1.507-3.341" fill="#ff969b"/>
          <path id="Path_651" data-name="Path 651" d="M101.8,187.238c-3.377-4.484,2.31-10.762,5.714-6.24,1.054,1.4,4.183,5.022,7.01,8.426l-6.7,5.279c-2.392-2.954-4.241-5.1-6.02-7.465" fill="#fff"/>
          <path id="Path_652" data-name="Path 652" d="M98.347,214.76c.486.95,2.067,1.113,3.532.364s2.259-2.127,1.773-3.077-2.068-1.113-3.533-.364-2.258,2.127-1.772,3.077" fill="#ff969b"/>
          <path id="Path_653" data-name="Path 653" d="M90.114,208.785a1.075,1.075,0,0,1-1.526-.483,42.4,42.4,0,0,1-2.342-5.916,19.058,19.058,0,0,1-.746-3.878,7.758,7.758,0,0,1,.134-2.144,6.7,6.7,0,0,1,.81-1.992c.7-1.175,1.554-2.065,2.212-3.022a8.671,8.671,0,0,0,1.372-3.162,11.593,11.593,0,0,0-1-7.017,15.119,15.119,0,0,1,1.483,3.369,10.013,10.013,0,0,1,.381,3.774,9.861,9.861,0,0,1-1.125,3.733c-.609,1.147-1.345,2.148-1.786,3.156a4.644,4.644,0,0,0-.313,3.007,16.74,16.74,0,0,0,1.041,3.225,39.406,39.406,0,0,0,2.814,5.167,1.152,1.152,0,0,1-.4,1.592Z" fill="#ff4d57"/>
          <path id="Path_654" data-name="Path 654" d="M90.317,180l-1.106-.079c-.543-.039-.881.9-.537,1.482l.5.844a.488.488,0,0,0,.861.061l.61-.765c.423-.531.218-1.5-.325-1.543" fill="#ff4d57"/>
          <rect id="Rectangle_323" data-name="Rectangle 323" width="7.308" height="1.533" transform="translate(67.677 236.577) rotate(-1.794)" fill="#fff"/>
          <path id="Path_655" data-name="Path 655" d="M69.315,160.885l.08,2.521a.364.364,0,0,1-.351.374h-.032a.364.364,0,0,1-.374-.351l-.08-2.521a.364.364,0,0,1,.351-.374h.032a.364.364,0,0,1,.374.351" fill="#482c5b"/>
          <path id="Path_656" data-name="Path 656" d="M68.531,161.258l-.591,1.99,2.161-.028-.73-1.989Z" fill="#6cbde0"/>
          <path id="Path_657" data-name="Path 657" d="M65.481,171.52l7.581-.239-2.961-8.06-2.161.027Z" fill="#fff"/>
          <path id="Path_658" data-name="Path 658" d="M67.745,236.657l7.294-.23a.389.389,0,0,0,.376-.4l-2.037-64.5a.874.874,0,0,0-.9-.845l-6.325.2a.873.873,0,0,0-.845.9l2.037,64.5a.388.388,0,0,0,.4.376" fill="#482c5b"/>
          <path id="Path_659" data-name="Path 659" d="M67.415,238.509l1.138,36.021a2.915,2.915,0,0,0,3,2.812l2.26-.072a2.913,2.913,0,0,0,2.813-2.995l-1.137-36.021a.389.389,0,0,0-.4-.376l-7.294.231a.388.388,0,0,0-.376.4" fill="#482c5b"/>
          <path id="Path_660" data-name="Path 660" d="M71.053,258.443l.373,11.824a1.045,1.045,0,0,1-1.01,1.076l-.092,0a1.048,1.048,0,0,1-1.077-1.011l-.373-11.823a1.048,1.048,0,0,1,1.01-1.077l.093,0a1.048,1.048,0,0,1,1.076,1.011" fill="#fff"/>
          <path id="Path_661" data-name="Path 661" d="M70.415,269.2a.434.434,0,0,1-.421.448l-1.513.048a2.577,2.577,0,0,1-2.655-2.49l-1.078-34.131a.435.435,0,0,1,.87-.028L66.7,267.183a1.705,1.705,0,0,0,1.757,1.648l1.513-.048a.436.436,0,0,1,.449.421" fill="#fff"/>
          <path id="Path_662" data-name="Path 662" d="M65.715,231.377l.055,1.746a.61.61,0,0,1-.589.628l-.054,0a.612.612,0,0,1-.628-.59l-.055-1.746a.611.611,0,0,1,.589-.628h.054a.61.61,0,0,1,.628.589" fill="#fff"/>
          <path id="Path_663" data-name="Path 663" d="M62.915,177.249c.486.95,2.067,1.113,3.532.364s2.259-2.127,1.773-3.077-2.068-1.113-3.533-.364-2.258,2.127-1.772,3.077" fill="#ff969b"/>
          <path id="Path_664" data-name="Path 664" d="M222.626,274.3c.01-.037.01.038.01.038s-.01-.025-.01-.038" fill="#ffda58"/>
          <path id="Path_665" data-name="Path 665" d="M222.636,274.259v-2.266c.108,2.211,9.646,4,21.407,4,9.017,0,16.717-1.051,19.876-2.537.985-.464,1.541-.969,1.541-1.5v5.423c-.255,2.189-9.733,3.952-21.411,3.952-11.7,0-21.191-1.768-21.4-3.963-.015,0-.015-.056-.015-.056v-3.053Z" fill="#ffb65a"/>
          <path id="Path_666" data-name="Path 666" d="M265.46,271.955c0-2.229-9.589-4.035-21.417-4.035s-21.417,1.806-21.407,4.073c.108,2.211,9.646,4,21.407,4,9.016,0,16.717-1.052,19.876-2.538.985-.464,1.541-.968,1.541-1.5m-3.333,0c0,1.73-8.1,3.133-18.084,3.133s-18.084-1.4-18.084-3.133,8.1-3.132,18.084-3.132,18.084,1.4,18.084,3.132" fill="#ffda58"/>
          <path id="Path_667" data-name="Path 667" d="M244.043,275.088c-9.988,0-18.084-1.4-18.084-3.133s8.1-3.132,18.084-3.132,18.084,1.4,18.084,3.132-8.1,3.133-18.084,3.133" fill="#ffb65a"/>
          <path id="Path_668" data-name="Path 668" d="M222.626,267.886c.01-.038.01.038.01.038s-.01-.025-.01-.038" fill="#ffcd5a"/>
          <path id="Path_669" data-name="Path 669" d="M222.636,267.849v-2.266c.108,2.211,9.646,4,21.407,4,9.017,0,16.717-1.051,19.876-2.537.985-.464,1.541-.969,1.541-1.5v5.423c-.255,2.19-9.733,3.952-21.411,3.952-11.7,0-21.191-1.768-21.4-3.963-.015,0-.015-.056-.015-.056v-3.053Z" fill="#ff9f5c"/>
          <path id="Path_670" data-name="Path 670" d="M265.46,265.545c0-2.229-9.589-4.035-21.417-4.035s-21.417,1.806-21.407,4.073c.108,2.211,9.646,4,21.407,4,9.016,0,16.717-1.052,19.876-2.538.985-.463,1.541-.968,1.541-1.5m-3.333,0c0,1.73-8.1,3.133-18.084,3.133s-18.084-1.4-18.084-3.133,8.1-3.132,18.084-3.132,18.084,1.4,18.084,3.132" fill="#ffcd5a"/>
          <path id="Path_671" data-name="Path 671" d="M244.043,268.678c-9.988,0-18.084-1.4-18.084-3.133s8.1-3.132,18.084-3.132,18.084,1.4,18.084,3.132-8.1,3.133-18.084,3.133" fill="#ffe65c"/>
          <path id="Path_672" data-name="Path 672" d="M170.466,44.439a10.563,10.563,0,0,1-3.757-.873V40.611a12.854,12.854,0,0,0,2.244.877,7.773,7.773,0,0,0,2.127.351,2.525,2.525,0,0,0,1.109-.182.635.635,0,0,0,.352-.61.622.622,0,0,0-.254-.5,3.933,3.933,0,0,0-.846-.463q-.592-.256-1.6-.623a7.239,7.239,0,0,1-1.825-.939,3.281,3.281,0,0,1-1.011-1.166,3.652,3.652,0,0,1-.316-1.607,2.9,2.9,0,0,1,.944-2.3,5,5,0,0,1,2.831-1.024v-1.22h1.843v1.2a10.43,10.43,0,0,1,3.57.873l-1.059,2.537a8.309,8.309,0,0,0-3.357-.837,2.084,2.084,0,0,0-1,.173.56.56,0,0,0-.29.512.63.63,0,0,0,.21.486,2.945,2.945,0,0,0,.725.427q.516.235,1.434.548a6.92,6.92,0,0,1,2.67,1.5,3,3,0,0,1,.81,2.168,3.258,3.258,0,0,1-.948,2.43,4.614,4.614,0,0,1-2.764,1.158V46.1h-1.843Z" fill="#fda428"/>
          <path id="Path_673" data-name="Path 673" d="M436.423,110.963h-.279a.187.187,0,0,1-.186-.186V105.55a.187.187,0,0,1,.186-.187h.279a.187.187,0,0,1,.186.187v5.227a.186.186,0,0,1-.186.186" fill="#fda428"/>
          <path id="Path_674" data-name="Path 674" d="M426.841,110.961l-.241.139a.187.187,0,0,1-.255-.068l-1.279-2.215a.188.188,0,0,1,.068-.255l.242-.139a.186.186,0,0,1,.254.068l1.279,2.215a.186.186,0,0,1-.068.255" fill="#fda428"/>
          <path id="Path_675" data-name="Path 675" d="M421.929,119.246l-.139.241a.186.186,0,0,1-.255.068l-4.267-2.463a.187.187,0,0,1-.068-.254l.139-.242a.188.188,0,0,1,.255-.068l4.267,2.463a.187.187,0,0,1,.068.255" fill="#fda428"/>
          <path id="Path_676" data-name="Path 676" d="M451.853,118.49l-.139-.241a.187.187,0,0,1,.068-.255l3.516-2.03a.187.187,0,0,1,.255.068l.139.241a.186.186,0,0,1-.068.255l-3.516,2.03a.187.187,0,0,1-.255-.068" fill="#fda428"/>
          <path id="Path_677" data-name="Path 677" d="M446.054,110.775l-.241-.139a.187.187,0,0,1-.068-.255l1.279-2.215a.185.185,0,0,1,.254-.068l.241.139a.188.188,0,0,1,.069.255l-1.279,2.215a.187.187,0,0,1-.255.068" fill="#fda428"/>
          <path id="Path_678" data-name="Path 678" d="M451.207,135.717l.139-.241a.187.187,0,0,1,.255-.068l4.267,2.463a.187.187,0,0,1,.068.254l-.139.242a.188.188,0,0,1-.255.068l-4.267-2.463a.187.187,0,0,1-.068-.255" fill="#fda428"/>
          <path id="Path_679" data-name="Path 679" d="M455.739,127.27v-.279a.187.187,0,0,1,.187-.186h2.557a.187.187,0,0,1,.187.186v.279a.187.187,0,0,1-.187.186h-2.557a.187.187,0,0,1-.187-.186" fill="#fda428"/>
          <path id="Path_680" data-name="Path 680" d="M417.315,127.643v.279a.187.187,0,0,1-.186.186h-2.558a.187.187,0,0,1-.187-.186v-.279a.187.187,0,0,1,.187-.186h2.558a.187.187,0,0,1,.186.186" fill="#fda428"/>
          <path id="Path_681" data-name="Path 681" d="M421.283,136.473l.139.241a.186.186,0,0,1-.068.255L417.838,139a.187.187,0,0,1-.255-.068l-.139-.241a.186.186,0,0,1,.068-.255l3.516-2.03a.186.186,0,0,1,.255.068" fill="#fda428"/>
          <path id="Path_682" data-name="Path 682" d="M436.631,143.95h.279a.187.187,0,0,1,.186.186v5.227a.187.187,0,0,1-.186.187h-.279a.187.187,0,0,1-.186-.187v-5.227a.187.187,0,0,1,.186-.186" fill="#fda428"/>
          <path id="Path_683" data-name="Path 683" d="M446.213,143.952l.241-.139a.186.186,0,0,1,.255.068l1.279,2.215a.188.188,0,0,1-.068.255l-.242.139a.186.186,0,0,1-.254-.068l-1.279-2.215a.187.187,0,0,1,.068-.255" fill="#fda428"/>
          <path id="Path_684" data-name="Path 684" d="M451.125,135.667l.139-.241a.186.186,0,0,1,.255-.068l4.267,2.463a.188.188,0,0,1,.068.255l-.14.241a.187.187,0,0,1-.254.068l-4.267-2.463a.187.187,0,0,1-.068-.255" fill="#fda428"/>
          <path id="Path_685" data-name="Path 685" d="M421.2,136.423l.139.241a.186.186,0,0,1-.068.255l-3.516,2.03a.187.187,0,0,1-.255-.068l-.139-.241a.186.186,0,0,1,.068-.255l3.517-2.03a.186.186,0,0,1,.254.068" fill="#fda428"/>
          <path id="Path_686" data-name="Path 686" d="M427,144.138l.241.139a.186.186,0,0,1,.068.255l-1.279,2.215a.185.185,0,0,1-.254.068l-.241-.139a.188.188,0,0,1-.069-.255l1.279-2.215a.187.187,0,0,1,.255-.068" fill="#fda428"/>
          <path id="Path_687" data-name="Path 687" d="M421.847,119.2l-.139.241a.186.186,0,0,1-.255.068l-4.267-2.463a.188.188,0,0,1-.068-.255l.139-.241a.187.187,0,0,1,.255-.068l4.267,2.463a.187.187,0,0,1,.068.255" fill="#fda428"/>
          <path id="Path_688" data-name="Path 688" d="M417.315,127.643v.279a.187.187,0,0,1-.186.186h-2.558a.187.187,0,0,1-.187-.186v-.279a.187.187,0,0,1,.187-.186h2.558a.187.187,0,0,1,.186.186" fill="#fda428"/>
          <path id="Path_689" data-name="Path 689" d="M455.739,127.27v-.279a.187.187,0,0,1,.187-.186h2.557a.187.187,0,0,1,.187.186v.279a.187.187,0,0,1-.187.186h-2.557a.187.187,0,0,1-.187-.186" fill="#fda428"/>
          <path id="Path_690" data-name="Path 690" d="M451.771,118.44l-.139-.241a.187.187,0,0,1,.068-.255l3.516-2.03a.187.187,0,0,1,.255.068l.139.241a.186.186,0,0,1-.068.255l-3.517,2.03a.185.185,0,0,1-.254-.068" fill="#fda428"/>
          <path id="Path_691" data-name="Path 691" d="M434.893,136.889a16.763,16.763,0,0,1-5.945-1.381v-4.677a20.276,20.276,0,0,0,3.55,1.388,12.271,12.271,0,0,0,3.366.556,3.992,3.992,0,0,0,1.754-.289,1,1,0,0,0,.556-.965.984.984,0,0,0-.4-.789,6.3,6.3,0,0,0-1.339-.732q-.937-.409-2.529-.986a11.394,11.394,0,0,1-2.887-1.487,5.178,5.178,0,0,1-1.6-1.844,5.753,5.753,0,0,1-.5-2.543,4.579,4.579,0,0,1,1.492-3.634,7.919,7.919,0,0,1,4.481-1.62v-1.931h2.916v1.9a16.573,16.573,0,0,1,5.648,1.38l-1.676,4.015a13.137,13.137,0,0,0-5.31-1.324,3.278,3.278,0,0,0-1.585.275.887.887,0,0,0-.458.81.994.994,0,0,0,.33.767,4.636,4.636,0,0,0,1.149.677q.817.374,2.267.866A10.964,10.964,0,0,1,442.4,127.7a4.736,4.736,0,0,1,1.282,3.43,5.163,5.163,0,0,1-1.5,3.846,7.306,7.306,0,0,1-4.373,1.831v2.719h-2.916Z" fill="#fda428"/>
        </g>
      </g>
    </g>
  </g>
</svg>
