<?xml version="1.0" encoding="utf-8"?>
<!-- Generator: Adobe Illustrator 26.3.1, SVG Export Plug-In . SVG Version: 6.00 Build 0)  -->
<svg version="1.1" id="Group_57" xmlns="http://www.w3.org/2000/svg" xmlns:xlink="http://www.w3.org/1999/xlink" x="0px" y="0px"
	 viewBox="0 0 100 100" style="enable-background:new 0 0 100 100;" xml:space="preserve">
<style type="text/css">
	.st0{clip-path:url(#SVGID_00000064355305514776499320000010726968226599083447_);}
	.st1{fill:#DEDEDE;}
</style>
<g>
	<defs>
		<rect id="SVGID_1_" x="10" y="5.4" width="80" height="89.2"/>
	</defs>
	<clipPath id="SVGID_00000054230293357640040150000003547134346733606536_">
		<use xlink:href="#SVGID_1_"  style="overflow:visible;"/>
	</clipPath>
	<g id="Group_56" style="clip-path:url(#SVGID_00000054230293357640040150000003547134346733606536_);">
		<path id="Path_692" class="st1" d="M61.2,48.8c-8.4,4.5-16.8,4-24.6-1.4c-6.1-4.1-9.8-10.9-9.8-18.3c-0.2-8.5,3.5-15.2,10.6-19.9
			c3.1-2.1,6.6-3.3,10.3-3.6c0.2,0,0.3-0.1,0.5-0.1h3.5c2.3,0.5,4.6,0.8,6.7,1.7c8,3.3,12.9,9.3,14.4,17.9
			C74.5,34.5,69.8,44.1,61.2,48.8"/>
		<path id="Path_693" class="st1" d="M88.6,73.7c-4.5,6.9-10.8,12.5-18.3,16.2c-6.9,3.3-13.5,4.8-18.8,4.8
			c-11.8-0.1-21-3.1-29.1-9.1c-4.8-3.5-8.8-7.9-11.9-13c-0.5-0.7-0.6-1.6-0.3-2.4c4.1-8.5,10.6-14,19.8-16.2c0.6-0.2,1.3-0.2,2-0.4
			c1.4-0.3,2.8,0.1,3.8,0.9c4.5,3.2,9.8,4.7,15.3,4.4c4.3-0.2,8.4-1.2,11.8-3.7c2.6-1.9,5.2-1.8,8-1c7.4,2,13.8,6.9,17.7,13.6
			C90.4,70.7,90.5,70.8,88.6,73.7"/>
	</g>
</g>
</svg>
